<svg width="253" height="150" viewBox="0 0 253 150" fill="none" xmlns="http://www.w3.org/2000/svg">
<g filter="url(#filter0_df_0_1)">
<circle cx="179" cy="72" r="70" fill="#3EC163"/>
</g>
<g filter="url(#filter1_df_0_1)">
<circle cx="109" cy="72" r="70" fill="#4DDA75"/>
</g>
<g filter="url(#filter2_d_0_1)">
<circle cx="74" cy="72" r="70" fill="#94FFAB"/>
</g>
<g filter="url(#filter3_b_0_1)">
<path d="M98.0244 69.1494V71.5518H91.125V78.5977L94.1279 79.1982V81H85.4268V79.1982L87.9756 78.5977V62.3965L85.4268 61.7959V60.1553L91.125 59.9941H100.28V64.9453H98.332L97.5703 62.3965H91.125V69.1494H98.0244ZM105.085 62.3965L102.536 61.7959V60.1553L108.234 59.9941H111.53C113.649 59.9941 115.305 60.4775 116.496 61.4443C117.688 62.4014 118.283 63.7197 118.283 65.3994C118.283 68.3389 116.984 70.2871 114.387 71.2441C114.865 71.6641 115.466 72.5674 116.188 73.9541L118.562 78.7148L120.686 79.1982V81H116.188L113.64 75.4482C113.161 74.4131 112.741 73.6514 112.38 73.1631C112.019 72.665 111.633 72.3232 111.223 72.1377C110.812 71.9424 110.266 71.8447 109.582 71.8447H108.234V78.5977L110.783 79.1982V81H102.536V79.1982L105.085 78.5977V62.3965ZM110.49 69.6035C111.945 69.6035 113.083 69.2764 113.903 68.6221C114.724 67.958 115.134 67.0352 115.134 65.8535C115.134 64.8574 114.782 64.0322 114.079 63.3779C113.386 62.7236 112.487 62.3965 111.384 62.3965H108.234V69.6035H110.49ZM132.39 59.7012C134.313 59.7012 135.974 60.126 137.37 60.9756C138.776 61.8252 139.846 63.041 140.578 64.623C141.32 66.2051 141.691 68.0654 141.691 70.2041C141.691 72.3818 141.276 74.3105 140.446 75.9902C139.616 77.6699 138.449 78.9736 136.945 79.9014C135.451 80.8291 133.737 81.293 131.804 81.293C128.864 81.293 126.604 80.3799 125.021 78.5537C123.439 76.7275 122.648 74.0908 122.648 70.6436C122.648 68.4658 123.044 66.5469 123.835 64.8867C124.626 63.2266 125.754 61.9473 127.219 61.0488C128.693 60.1504 130.417 59.7012 132.39 59.7012ZM132.243 62.25C130.241 62.25 128.713 62.9238 127.658 64.2715C126.613 65.6191 126.091 67.6943 126.091 70.4971C126.091 73.2217 126.579 75.2773 127.556 76.6641C128.542 78.0508 130.007 78.7441 131.95 78.7441C133.952 78.7441 135.5 78.041 136.594 76.6348C137.697 75.2285 138.249 73.1338 138.249 70.3506C138.249 67.6748 137.736 65.6582 136.711 64.3008C135.695 62.9336 134.206 62.25 132.243 62.25ZM147.243 62.3965L144.694 61.7959V60.1553L150.246 59.9941H153.688C155.651 59.9941 157.219 60.4385 158.391 61.3271C159.562 62.2061 160.148 63.5146 160.148 65.2529C160.148 67.8311 158.845 69.4521 156.237 70.1162C157.78 70.4775 158.942 71.0781 159.724 71.918C160.505 72.748 160.896 73.7734 160.896 74.9941C160.896 77.0547 160.251 78.5732 158.962 79.5498C157.673 80.5166 155.769 81 153.249 81H144.694V79.1982L147.243 78.5977V62.3965ZM152.487 69.0029C153.894 69.0029 154.997 68.7197 155.798 68.1533C156.599 67.5771 156.999 66.708 156.999 65.5459C156.999 64.5303 156.677 63.7539 156.032 63.2168C155.397 62.6699 154.567 62.3965 153.542 62.3965H150.246V69.0029H152.487ZM153.396 78.5977C154.812 78.5977 155.891 78.3047 156.633 77.7188C157.375 77.123 157.746 76.2686 157.746 75.1553C157.746 73.7197 157.307 72.709 156.428 72.123C155.549 71.5371 154.235 71.2441 152.487 71.2441H150.246V78.5977H153.396Z" fill="#3D5844"/>
<path d="M176.789 74.8477H170.183L168.293 78.6855L170.637 79.1982V81H162.536V79.1982L165.217 78.5977L173.522 62.3965L170.974 61.7959V60.1553L174.753 59.9941H189.064V65.1064H187.116L186.354 62.3965H179.938V68.8564H186.809V71.2441H179.938V78.5977H186.809L187.409 75.5947H189.357V81H174.094V79.1982L176.789 78.5977V74.8477ZM176.335 62.3965L171.384 72.4453H176.789V62.3965H176.335ZM200.461 79.1982V81H192.36V79.1982L194.909 78.5977V62.3965L192.36 61.7959V60.1553L198.659 59.9941L208.562 76.7666V62.3965L206.013 61.7959V60.1553L213.806 59.9941V61.7959L211.257 62.3965V81H207.507L197.604 64.4766V78.5977L200.461 79.1982ZM218.757 62.3965L216.208 61.7959V60.1553L221.906 59.9941H225.656C228.615 59.9941 230.93 60.8828 232.6 62.6602C234.27 64.4277 235.104 66.9424 235.104 70.2041C235.104 72.3818 234.699 74.2861 233.889 75.917C233.088 77.5479 231.936 78.8027 230.432 79.6816C228.928 80.5605 227.189 81 225.217 81H216.208V79.1982L218.757 78.5977V62.3965ZM225.363 78.5977C227.326 78.5977 228.864 77.9141 229.978 76.5469C231.101 75.1797 231.662 73.1143 231.662 70.3506C231.662 67.6553 231.12 65.6582 230.036 64.3594C228.962 63.0508 227.453 62.3965 225.51 62.3965H221.906V78.5977H225.363Z" fill="#D6FFA2"/>
</g>
<path d="M238 46V91" stroke="#D6FFA1" stroke-width="0.5"/>
<defs>
<filter id="filter0_df_0_1" x="105" y="0" width="148" height="150" filterUnits="userSpaceOnUse" color-interpolation-filters="sRGB">
<feFlood flood-opacity="0" result="BackgroundImageFix"/>
<feColorMatrix in="SourceAlpha" type="matrix" values="0 0 0 0 0 0 0 0 0 0 0 0 0 0 0 0 0 0 127 0" result="hardAlpha"/>
<feOffset dy="4"/>
<feGaussianBlur stdDeviation="2"/>
<feComposite in2="hardAlpha" operator="out"/>
<feColorMatrix type="matrix" values="0 0 0 0 0 0 0 0 0 0 0 0 0 0 0 0 0 0 0.25 0"/>
<feBlend mode="normal" in2="BackgroundImageFix" result="effect1_dropShadow_0_1"/>
<feBlend mode="normal" in="SourceGraphic" in2="effect1_dropShadow_0_1" result="shape"/>
<feGaussianBlur stdDeviation="1" result="effect2_foregroundBlur_0_1"/>
</filter>
<filter id="filter1_df_0_1" x="35" y="1" width="148" height="149" filterUnits="userSpaceOnUse" color-interpolation-filters="sRGB">
<feFlood flood-opacity="0" result="BackgroundImageFix"/>
<feColorMatrix in="SourceAlpha" type="matrix" values="0 0 0 0 0 0 0 0 0 0 0 0 0 0 0 0 0 0 127 0" result="hardAlpha"/>
<feOffset dy="4"/>
<feGaussianBlur stdDeviation="2"/>
<feComposite in2="hardAlpha" operator="out"/>
<feColorMatrix type="matrix" values="0 0 0 0 0 0 0 0 0 0 0 0 0 0 0 0 0 0 0.25 0"/>
<feBlend mode="normal" in2="BackgroundImageFix" result="effect1_dropShadow_0_1"/>
<feBlend mode="normal" in="SourceGraphic" in2="effect1_dropShadow_0_1" result="shape"/>
<feGaussianBlur stdDeviation="0.5" result="effect2_foregroundBlur_0_1"/>
</filter>
<filter id="filter2_d_0_1" x="0" y="2" width="148" height="148" filterUnits="userSpaceOnUse" color-interpolation-filters="sRGB">
<feFlood flood-opacity="0" result="BackgroundImageFix"/>
<feColorMatrix in="SourceAlpha" type="matrix" values="0 0 0 0 0 0 0 0 0 0 0 0 0 0 0 0 0 0 127 0" result="hardAlpha"/>
<feOffset dy="4"/>
<feGaussianBlur stdDeviation="2"/>
<feComposite in2="hardAlpha" operator="out"/>
<feColorMatrix type="matrix" values="0 0 0 0 0 0 0 0 0 0 0 0 0 0 0 0 0 0 0.25 0"/>
<feBlend mode="normal" in2="BackgroundImageFix" result="effect1_dropShadow_0_1"/>
<feBlend mode="normal" in="SourceGraphic" in2="effect1_dropShadow_0_1" result="shape"/>
</filter>
<filter id="filter3_b_0_1" x="81.4268" y="55.7012" width="157.678" height="29.5918" filterUnits="userSpaceOnUse" color-interpolation-filters="sRGB">
<feFlood flood-opacity="0" result="BackgroundImageFix"/>
<feGaussianBlur in="BackgroundImageFix" stdDeviation="2"/>
<feComposite in2="SourceAlpha" operator="in" result="effect1_backgroundBlur_0_1"/>
<feBlend mode="normal" in="SourceGraphic" in2="effect1_backgroundBlur_0_1" result="shape"/>
</filter>
</defs>
</svg>
