<svg width="290" height="318" fill="none" xmlns="http://www.w3.org/2000/svg">
  <g filter="url(#filter0_d)">
    <path fill-rule="evenodd" clip-rule="evenodd" d="M67.8521 35.3623H221.702c29.575 0 42.332 14.6425 42.332 42.391V302.031H25.52V77.7533c0-27.7485 12.7573-42.391 42.3321-42.391z" fill="#000"/>
  </g>
  <path fill-rule="evenodd" clip-rule="evenodd" d="M67.8521 36.4828c-28.2553 0-41.2132 13.4151-41.2132 41.2705V301.91H262.915V77.7533c0-27.8554-12.957-41.2705-41.213-41.2705H67.8521z" fill="#F8F8F8"/>
  <path d="M30.5632 77.7533c0-13.1503 2.9704-22.3935 8.9269-28.3698 5.9556-5.9753 15.1839-8.973 28.362-8.973H221.702c13.178 0 22.407 2.9977 28.362 8.973 5.957 5.9763 8.927 15.2195 8.927 28.3698V297.983H30.5632V77.7533z" fill="url(#paint0_linear)"/>
  <path fill-rule="evenodd" clip-rule="evenodd" d="M67.8521 41c-12.9827 0-21.7422 2.9561-27.2996 8.5319-5.5593 5.5778-8.4893 14.3536-8.4893 27.3109V298.573H257.491V76.8428c0-12.9574-2.93-21.7331-8.489-27.3109C243.445 43.9563 234.685 41 221.702 41H67.8521zm-29.4244 6.4141C44.7815 41.0393 54.4786 38 67.8521 38H221.702c13.373 0 23.071 3.0392 29.424 9.4141 6.355 6.3749 9.365 16.0855 9.365 29.4287V302H29.0632V76.8428c0-13.3433 3.0108-23.0539 9.3645-29.4287z" fill="#000"/>
  <path fill-rule="evenodd" clip-rule="evenodd" d="M67.8521 41.1514H221.702c25.37 0 36.365 11.0316 36.365 36.4152V301.868H31.4875V77.5666c0-25.3836 10.9952-36.4152 36.3646-36.4152z" fill="url(#paint1_linear)"/>
  <path fill-rule="evenodd" clip-rule="evenodd" d="M67.8521 41.1514H221.702c25.37 0 36.365 11.0316 36.365 36.4152V301.868H31.4875V77.5666c0-25.3836 10.9952-36.4152 36.3646-36.4152z" fill="url(#paint2_radial)"/>
  <path d="M67.8522 44.8863c-23.3012 0-32.6349 9.3509-32.6349 32.6803V299.133H254.337V77.5666c0-23.3294-9.334-32.6803-32.635-32.6803H67.8522z" fill="#000"/>
  <g fill-rule="evenodd" clip-rule="evenodd" fill="#7E7E7E">
    <path d="M48.4475 44.4482c-11.551 4.9505-16.7734 15.6348-16.7734 33.1405V302h4.1026V75.6842c0-23.1527 12.6708-31.236 12.6708-31.236zM241.479 44.4482c11.551 4.9504 16.774 15.6347 16.774 33.1404V302h-4.103V75.6842c0-23.1527-12.671-31.236-12.671-31.236z"/>
  </g>
  <g fill="#818183">
    <path d="M29.6227 81.675H25.52v3.3614h4.1027V81.675zM264.035 81.675h-4.103v3.3614h4.103V81.675zM214.429 35.3623v4.1084h3.357v-4.1084h-3.357z"/>
  </g>
  <path fill-rule="evenodd" clip-rule="evenodd" d="M25.3299 100.723c-.719 0-1.3018.585-1.3018 1.307v16.06c0 .722.5828 1.307 1.3018 1.307h.7439c0-.982.0126-17.714 0-18.674h-.7439z" fill="url(#paint3_linear)"/>
  <path fill-rule="evenodd" clip-rule="evenodd" d="M25.3299 134.897c-.4233.105-.9308.372-1.2018.751-.0559.079-.1.326-.1.397v32.797c0 .076.0621.462.1002.556.2193.539.6004.669 1.2016.981h.7439c0-.983.0126-34.522 0-35.482h-.7439z" fill="url(#paint4_linear)"/>
  <path fill-rule="evenodd" clip-rule="evenodd" d="M25.3299 179.156c-.4233.104-.9308.371-1.2018.751-.0559.078-.1.325-.1.397V213.1c0 .077.0621.462.1002.556.2193.539.6004.669 1.2016.981h.7439c0-.982.0126-34.521 0-35.481h-.7439z" fill="url(#paint5_linear)"/>
  <path d="M157.455 52.7296h-25.17c-1.083 0-1.961.8779-1.961 1.9608s.878 1.9608 1.961 1.9608h25.17c1.083 0 1.961-.8779 1.961-1.9608s-.878-1.9608-1.961-1.9608z" fill="#1D1C1C"/>
  <path fill-rule="evenodd" clip-rule="evenodd" d="M170.419 58.1451c1.957 0 3.543-1.5885 3.543-3.5481 0-1.9596-1.586-3.5481-3.543-3.5481s-3.544 1.5885-3.544 3.5481c0 1.9596 1.587 3.5481 3.544 3.5481z" fill="url(#paint6_radial)"/>
  <path fill-rule="evenodd" clip-rule="evenodd" d="M170.419 56.4644c1.03 0 1.864-.836 1.864-1.8674s-.834-1.8674-1.864-1.8674c-1.03 0-1.865.836-1.865 1.8674s.835 1.8674 1.865 1.8674z" fill="url(#paint7_radial)"/>
  <path fill-rule="evenodd" clip-rule="evenodd" d="M203.52 54.6292v.1781c0 4.9486-3.958 11.2169-13.067 11.2169h-90.72c-9.1079 0-13.0663-6.2683-13.0663-11.2169v-.1781c0-2.2888 0-4.6292-4.2934-4.6292H64.2667C49.1345 50 40 58.7127 40 73.146V302h210V73.146C250 58.7127 240.865 50 225.733 50h-17.92c-4.293 0-4.293 2.3404-4.293 4.6292z" fill="#fff"/>
  <path d="M98.1678 174.627h-.7325v2.687h-.7947v-5.982h.7947v2.638h.6208l2.1069-2.638h.989l-2.3015 2.901 2.4705 3.081h-.972l-2.1812-2.687zm3.4432.423c0-.435.085-.827.257-1.175.173-.348.413-.616.72-.805.309-.189.66-.283 1.055-.283.61 0 1.102.209 1.477.628.378.419.567.976.567 1.672v.054c0 .432-.084.821-.252 1.166-.166.343-.404.61-.716.801-.309.192-.665.288-1.068.288-.607 0-1.099-.21-1.477-.629-.375-.419-.563-.973-.563-1.663v-.054zm.77.091c0 .493.114.888.343 1.187.232.298.541.448.927.448.389 0 .698-.151.927-.452.229-.304.344-.729.344-1.274 0-.487-.118-.882-.352-1.183-.232-.304-.541-.456-.927-.456-.378 0-.683.149-.915.448-.231.298-.347.726-.347 1.282zm7.925 2.173h-.766v-1.898h-2.057v1.898h-.769v-4.445h.769v1.927h2.057v-1.927h.766v4.445zm3.029-.538c.273 0 .512-.083.716-.247.204-.164.317-.37.339-.616h.725c-.014.255-.102.497-.265.727-.163.23-.381.414-.654.55-.27.137-.557.206-.861.206-.61 0-1.095-.201-1.456-.604-.359-.405-.539-.959-.539-1.66v-.127c0-.433.08-.818.24-1.154.16-.337.389-.599.688-.785.3-.186.655-.279 1.063-.279.502 0 .919.149 1.25.447.334.299.512.686.534 1.163h-.725c-.022-.288-.132-.523-.331-.707-.195-.186-.438-.279-.728-.279-.389 0-.691.14-.906.419-.213.277-.319.678-.319 1.204v.144c0 .512.106.906.319 1.183.212.276.516.415.91.415zm5.968-3.291h-1.502v3.829h-.766v-3.829h-1.473v-.616h3.741v.616zm3.443 3.829c-.044-.088-.08-.244-.108-.469-.356.367-.78.551-1.274.551-.442 0-.804-.123-1.089-.37-.281-.249-.422-.564-.422-.945 0-.463.177-.821.53-1.076.356-.257.855-.386 1.498-.386h.745v-.349c0-.266-.08-.477-.24-.633-.16-.159-.396-.238-.708-.238-.273 0-.502.068-.687.205-.184.137-.277.303-.277.497h-.77c0-.222.079-.435.236-.641.16-.208.375-.372.646-.493.273-.12.572-.18.898-.18.516 0 .92.128 1.212.386.293.255.445.606.456 1.056v2.045c0 .409.052.733.157.974v.066h-.803zm-1.27-.579c.239 0 .467-.062.682-.185.215-.124.371-.284.468-.481v-.912h-.6c-.938 0-1.407.272-1.407.817 0 .239.08.425.24.559.16.134.365.202.617.202zm6.774.579h-.766v-1.898h-2.056v1.898h-.77v-4.445h.77v1.927h2.056v-1.927h.766v4.445zm4.561-3.829h-1.503v3.829h-.765v-3.829h-1.473v-.616h3.741v.616zm3.642-.616h.765v4.445h-.765v-3.242l-2.066 3.242h-.765v-4.445h.765v3.245l2.066-3.245zm5.653 4.445h-.766v-1.898h-2.057v1.898h-.77v-4.445h.77v1.927h2.057v-1.927h.766v4.445zm4.482-5.982l1.969 4.881 1.97-4.881h1.031v5.982h-.795v-2.33l.075-2.514-1.978 4.844h-.609l-1.974-4.831.079 2.501v2.33h-.795v-5.982h1.027zm8.111 6.064c-.607 0-1.101-.197-1.482-.592-.38-.397-.571-.927-.571-1.59v-.139c0-.441.084-.834.253-1.179.171-.348.408-.619.711-.814.307-.197.638-.295.994-.295.582 0 1.034.19 1.357.571.323.38.484.925.484 1.635v.316h-3.033c.011.438.139.793.385 1.064.248.268.563.403.943.403.271 0 .5-.055.687-.165.188-.109.352-.254.493-.435l.467.361c-.375.573-.938.859-1.688.859zm-.095-3.985c-.309 0-.569.112-.778.337-.21.222-.34.534-.389.937h2.243v-.058c-.022-.386-.127-.685-.315-.896-.187-.213-.441-.32-.761-.32zm6.514 1.73c0 .676-.156 1.221-.468 1.635-.312.413-.734.62-1.266.62-.544 0-.971-.171-1.283-.514v2.141h-.766v-6.154h.7l.037.493c.312-.384.745-.575 1.299-.575.538 0 .963.201 1.275.603.314.403.472.963.472 1.681v.07zm-.766-.087c0-.501-.107-.897-.323-1.187-.215-.29-.51-.435-.885-.435-.464 0-.812.204-1.043.612v2.124c.229.405.579.608 1.051.608.367 0 .658-.144.873-.432.218-.29.327-.72.327-1.29zm4.639-2.185h.766v4.445h-.766v-3.242l-2.065 3.242h-.765v-4.445h.765v3.245l2.065-3.245zm5.322.616h-1.502v3.829h-.766v-3.829h-1.473v-.616h3.741v.616zm.369 1.565c0-.435.085-.827.256-1.175.174-.348.414-.616.72-.805.309-.189.661-.283 1.056-.283.609 0 1.102.209 1.477.628.378.419.567.976.567 1.672v.054c0 .432-.084.821-.252 1.166-.166.343-.405.61-.716.801-.309.192-.665.288-1.068.288-.607 0-1.099-.21-1.478-.629-.375-.419-.562-.973-.562-1.663v-.054zm.769.091c0 .493.115.888.344 1.187.232.298.541.448.927.448.389 0 .698-.151.927-.452.229-.304.343-.729.343-1.274 0-.487-.117-.882-.351-1.183-.232-.304-.541-.456-.927-.456-.378 0-.683.149-.915.448-.232.298-.348.726-.348 1.282zm7.93 2.173h-.766v-3.817h-2.061v3.817h-.77v-4.445h3.597v4.445zm1.026-2.264c0-.435.086-.827.257-1.175.173-.348.413-.616.72-.805.309-.189.66-.283 1.055-.283.61 0 1.102.209 1.477.628.378.419.567.976.567 1.672v.054c0 .432-.084.821-.252 1.166-.166.343-.404.61-.716.801-.309.192-.665.288-1.068.288-.607 0-1.099-.21-1.477-.629-.375-.419-.563-.973-.563-1.663v-.054zm.77.091c0 .493.114.888.343 1.187.232.298.541.448.927.448.389 0 .698-.151.927-.452.229-.304.344-.729.344-1.274 0-.487-.117-.882-.352-1.183-.232-.304-.541-.456-.927-.456-.378 0-.683.149-.915.448-.231.298-.347.726-.347 1.282zm7.871-2.272v4.445h-.77v-3.817h-1.523l-.091 1.664c-.049.764-.179 1.311-.389 1.639-.207.329-.536.5-.989.514h-.306v-.67l.219-.016c.249-.028.427-.17.534-.428.108-.257.177-.733.207-1.429l.083-1.902h3.025zm2.065 1.532h1.163c.508.006.909.137 1.204.395.296.257.443.606.443 1.047 0 .444-.152.8-.455 1.068-.304.269-.712.403-1.225.403h-1.895v-4.445h.765v1.532zm0 .62v1.672h1.138c.287 0 .509-.072.667-.217.157-.148.235-.349.235-.604 0-.247-.077-.448-.231-.604-.152-.159-.366-.241-.642-.247h-1.167z" fill="#8E8E8E"/>
  <g filter="url(#filter1_d)">
    <path d="M62.2439 193H227.756c2.344 0 4.244 1.537 4.244 3.434V302H58V196.434c0-1.897 1.9001-3.434 4.2439-3.434z" fill="#fff"/>
  </g>
  <g fill="#EAEAEA">
    <path d="M106.5 220.895c0-.145-.119-.263-.265-.263-.147 0-.265.118-.265.263v20.508c0 .145.118.263.265.263.146 0 .265-.118.265-.263v-20.508zM166.358 220.895c0-.145-.118-.263-.265-.263-.146 0-.264.118-.264.263v20.508c0 .145.118.263.264.263.147 0 .265-.118.265-.263v-20.508z"/>
  </g>
  <g fill="#0083CA">
    <path d="M119.085 239.594h-.699v-4.666h-2.6v4.666h-.696v-5.234h3.995v5.234zm4.472-1.902c0 .592-.137 1.069-.409 1.431-.273.362-.643.543-1.109.543-.475 0-.849-.15-1.122-.45v1.873h-.67v-5.384h.612l.032.431c.273-.336.652-.503 1.138-.503.47 0 .842.176 1.115.528.275.352.413.842.413 1.47v.061zm-.67-.075c0-.439-.094-.785-.283-1.039-.188-.254-.446-.381-.775-.381-.405 0-.709.179-.912.536v1.858c.2.355.507.532.92.532.321 0 .575-.126.764-.377.19-.254.286-.631.286-1.129zm1.347-.004c0-.381.075-.723.224-1.028.152-.304.362-.539.63-.704.271-.166.579-.248.924-.248.533 0 .964.183 1.293.55.33.366.496.854.496 1.463v.046c0 .379-.074.719-.221 1.021-.145.3-.354.533-.627.701-.27.168-.582.252-.934.252-.531 0-.962-.184-1.293-.55-.328-.367-.492-.852-.492-1.456v-.047zm.673.079c0 .432.1.778.301 1.039.203.261.473.392.811.392.34 0 .611-.132.811-.395.201-.266.301-.638.301-1.115 0-.426-.103-.771-.308-1.035-.203-.266-.473-.399-.811-.399-.331 0-.598.131-.801.392-.202.261-.304.635-.304 1.121zm5.305 1.431c.239 0 .448-.072.627-.216.178-.144.277-.323.297-.539h.633c-.012.223-.089.435-.231.636-.143.202-.334.362-.572.482-.237.12-.488.18-.754.18-.533 0-.958-.176-1.274-.529-.314-.354-.471-.838-.471-1.452v-.111c0-.379.07-.716.21-1.01.14-.295.34-.524.601-.687.263-.163.573-.244.931-.244.439 0 .804.13 1.093.391.292.262.448.601.467 1.018h-.633c-.02-.252-.116-.458-.29-.618-.171-.163-.384-.245-.637-.245-.341 0-.605.122-.793.367-.186.242-.279.593-.279 1.053v.126c0 .448.093.793.279 1.035.185.242.451.363.796.363zm4.567-.41l1.332-3.008h.837v3.889h-.67v-2.829l-1.268 2.829h-.463l-1.293-2.89v2.89h-.67v-3.889h.869l1.326 3.008zm3.07-1.1c0-.381.075-.723.225-1.028.152-.304.362-.539.63-.704.27-.166.578-.248.923-.248.534 0 .965.183 1.293.55.331.366.496.854.496 1.463v.046c0 .379-.073.719-.221 1.021-.145.3-.353.533-.626.701-.271.168-.582.252-.935.252-.531 0-.961-.184-1.292-.55-.328-.367-.493-.852-.493-1.456v-.047zm.674.079c0 .432.1.778.3 1.039.203.261.473.392.811.392.341 0 .611-.132.812-.395.2-.266.3-.638.3-1.115 0-.426-.102-.771-.308-1.035-.202-.266-.473-.399-.811-.399-.331 0-.597.131-.8.392-.203.261-.304.635-.304 1.121zm6.565-1.448h-1.315v3.35h-.669v-3.35h-1.29v-.539h3.274v.539zm3.962 1.448c0 .592-.137 1.069-.41 1.431-.273.362-.642.543-1.108.543-.475 0-.85-.15-1.122-.45v1.873h-.67v-5.384h.612l.032.431c.273-.336.652-.503 1.137-.503.471 0 .843.176 1.116.528.275.352.413.842.413 1.47v.061zm-.67-.075c0-.439-.095-.785-.283-1.039-.188-.254-.446-.381-.775-.381-.405 0-.71.179-.912.536v1.858c.2.355.507.532.919.532.322 0 .576-.126.764-.377.191-.254.287-.631.287-1.129zm1.347-.004c0-.381.074-.723.224-1.028.152-.304.362-.539.63-.704.271-.166.578-.248.924-.248.533 0 .964.183 1.292.55.331.366.496.854.496 1.463v.046c0 .379-.073.719-.22 1.021-.145.3-.354.533-.627.701-.27.168-.582.252-.934.252-.531 0-.962-.184-1.293-.55-.328-.367-.492-.852-.492-1.456v-.047zm.673.079c0 .432.1.778.301 1.039.202.261.473.392.811.392.34 0 .611-.132.811-.395.2-.266.3-.638.3-1.115 0-.426-.102-.771-.307-1.035-.203-.266-.473-.399-.811-.399-.331 0-.598.131-.801.392-.203.261-.304.635-.304 1.121zm3.795 1.902v-3.889h1.528c.522 0 .921.091 1.199.273.28.18.42.444.42.794 0 .18-.054.343-.163.489-.109.144-.269.254-.482.331.237.055.426.163.569.323.145.161.217.352.217.575 0 .357-.133.631-.398.82-.263.189-.636.284-1.119.284h-1.771zm.67-1.708v1.172h1.108c.28 0 .489-.051.627-.154.14-.103.21-.248.21-.435 0-.388-.288-.583-.862-.583h-1.083zm0-.532h.865c.628 0 .942-.182.942-.546 0-.364-.297-.552-.891-.564h-.916v1.11zM178.943 239.596h-.699v-4.666h-2.6v4.666h-.695v-5.234h3.994v5.234zm4.472-1.902c0 .592-.136 1.069-.409 1.431-.273.361-.642.542-1.108.542-.476 0-.85-.149-1.123-.449v1.873h-.67v-5.385h.612l.033.432c.273-.336.652-.504 1.137-.504.471 0 .843.176 1.115.529.276.352.413.842.413 1.47v.061zm-.67-.075c0-.439-.094-.785-.282-1.039-.188-.254-.447-.381-.775-.381-.406 0-.71.178-.913.535v1.859c.201.354.507.532.92.532.321 0 .576-.126.764-.378.191-.254.286-.63.286-1.128zm4.06-1.913h.669v3.89h-.669v-2.837l-1.807 2.837h-.67v-3.89h.67v2.84l1.807-2.84zm4.276.55h-1.807v3.34h-.673v-3.89h2.48v.55zm3.65-.55v3.89h-.673v-3.34h-1.333l-.08 1.456c-.043.669-.156 1.147-.34 1.434-.181.288-.47.437-.865.45h-.268v-.587l.192-.014c.217-.024.373-.148.467-.374.094-.225.154-.642.181-1.251l.072-1.664h2.647zm3.495 3.89c-.039-.077-.07-.214-.095-.41-.311.321-.683.481-1.115.481-.386 0-.703-.108-.952-.323-.246-.218-.37-.494-.37-.827 0-.405.155-.719.464-.942.311-.225.748-.337 1.311-.337h.652v-.306c0-.233-.07-.417-.21-.554-.14-.139-.347-.208-.62-.208-.239 0-.439.06-.601.18-.161.119-.242.264-.242.435h-.674c0-.195.069-.381.207-.561.14-.182.328-.326.564-.432.239-.105.501-.158.786-.158.452 0 .805.113 1.061.338.256.223.389.531.399.924v1.79c0 .357.045.641.137.852v.058h-.702zm-1.112-.507c.21 0 .409-.054.598-.162.188-.108.324-.248.409-.421v-.798h-.525c-.821 0-1.232.239-1.232.716 0 .208.07.371.21.488.14.118.32.177.54.177zm3.458-3.383v3.347h1.434v-3.347h.67v3.347h1.43v-3.347h.674v3.89h-4.881v-3.89h.673zm6.891 3.961c-.531 0-.963-.172-1.296-.517-.333-.348-.5-.811-.5-1.391v-.123c0-.385.074-.729.221-1.031.15-.304.357-.542.623-.712.268-.172.557-.259.869-.259.509 0 .905.167 1.188.5.282.333.423.81.423 1.431v.276h-2.654c.01.384.122.694.337.931.217.235.492.353.825.353.237 0 .437-.048.601-.144.165-.096.308-.223.431-.381l.41.316c-.329.501-.821.751-1.478.751zm-.083-3.486c-.271 0-.497.098-.681.294-.183.195-.297.468-.34.82h1.962v-.05c-.019-.338-.111-.6-.275-.784-.164-.187-.386-.28-.666-.28zm5.591 3.415h-.67v-1.661h-1.8v1.661h-.673v-3.89h.673v1.686h1.8v-1.686h.67v3.89zm3.614-3.89h.67v3.89h-.67v-2.837l-1.807 2.837h-.67v-3.89h.67v2.84l1.807-2.84zm4.74 0v3.89h-.674v-1.514h-1.01l-.923 1.514h-.725l.985-1.615c-.251-.091-.444-.231-.579-.42-.133-.192-.199-.415-.199-.669 0-.354.134-.64.402-.855.268-.218.626-.329 1.075-.331h1.648zm-2.452 1.194c0 .189.066.342.196.46.13.115.303.173.518.176h1.064v-1.291h-.963c-.249 0-.447.061-.594.184-.147.119-.221.276-.221.471zM98.0126 287.81c1.3285 0 2.1184-1.032 2.1184-2.783 0-1.717-.8399-2.66-2.0894-2.66-1.1371 0-1.9409.759-1.9409 1.82 0 .994.7242 1.721 1.72 1.721.612 0 1.1081-.28 1.3544-.773h.061c-.01 1.219-.4486 1.916-1.2126 1.916-.4491 0-.8075-.244-.9197-.64h-.9306c.152.844.8835 1.399 1.8394 1.399zm.0326-2.617c-.6083 0-1.0284-.424-1.0284-1.035 0-.586.4417-1.035 1.0321-1.035.5902 0 1.0322.456 1.0322 1.052 0 .591-.4311 1.018-1.0359 1.018zm4.9308 2.621c1.206 0 2.032-.619 2.032-1.522 0-.668-.449-1.193-1.13-1.318v-.062c.561-.139.916-.582.916-1.142 0-.817-.753-1.403-1.814-1.403s-1.818.586-1.818 1.403c0 .556.362 1.006.92 1.142v.062c-.685.14-1.13.664-1.13 1.322 0 .899.826 1.518 2.024 1.518zm.004-3.175c-.533 0-.898-.316-.898-.783s.362-.792.898-.792c.532 0 .894.325.894.792 0 .463-.365.783-.894.783zm0 2.465c-.63 0-1.065-.362-1.065-.884 0-.524.435-.888 1.065-.888.626 0 1.061.364 1.061.888 0 .522-.431.884-1.061.884zm2.889-3.071h.876c0-.548.362-.921.93-.921.547 0 .873.363.873.833 0 .397-.159.644-.818 1.305l-1.811 1.808v.627h3.629v-.771h-2.361v-.06l1.122-1.097c.898-.873 1.163-1.293 1.163-1.898 0-.862-.707-1.492-1.746-1.492-1.09 0-1.857.683-1.857 1.666zm9.061 3.652h.899v-3.931h-3.437v3.931h.898v-3.233h1.64v3.233zm3.675.079c1.184 0 1.905-.77 1.905-2.047 0-1.269-.725-2.038-1.905-2.038-1.177 0-1.905.773-1.905 2.038 0 1.277.717 2.047 1.905 2.047zm0-.73c-.627 0-.985-.483-.985-1.314 0-.829.358-1.311.985-1.311.623 0 .981.482.981 1.311 0 .831-.355 1.314-.981 1.314zm3.095 1.674v-1.023h2.839v1.023h.826v-1.719h-.609v-3.235h-2.98l-.138 2.064c-.036.529-.159 1-.452 1.171h-.312v1.719h.826zm2.158-1.719h-1.709v-.063c.174-.246.264-.63.297-1.061l.101-1.417h1.311v2.541zm3.707-.664l.811 1.367h1.014l-1.292-1.989 1.278-1.94h-.989l-.782 1.362h-.061l-.786-1.362h-1.043l1.293 1.98-1.282 1.949h.97l.808-1.367h.061zm4.135 1.439c1.184 0 1.905-.77 1.905-2.047 0-1.269-.725-2.038-1.905-2.038-1.177 0-1.905.773-1.905 2.038 0 1.277.717 2.047 1.905 2.047zm0-.73c-.627 0-.985-.483-.985-1.314 0-.829.358-1.311.985-1.311.623 0 .981.482.981 1.311 0 .831-.355 1.314-.981 1.314zm3.095 1.674v-1.023h2.839v1.023h.826v-1.719h-.609v-3.235h-2.98l-.138 2.064c-.036.529-.159 1-.452 1.171h-.312v1.719h.826zm2.158-1.719h-1.709v-.063c.174-.246.264-.63.297-1.061l.101-1.417h1.311v2.541zm4.334.696h.883v-3.931h-1.633c-.923 0-1.532.516-1.532 1.338 0 .543.33.963.87 1.121l-1.062 1.472h1.029l.927-1.324h.518v1.324zm-.681-1.985c-.431 0-.714-.253-.714-.608 0-.395.279-.644.714-.644h.681v1.252h-.681zm2.628 1.985h5.008v1.023h.84v-1.719h-.626v-3.235h-.898v3.235h-1.264v-3.235h-.898v3.235h-1.264v-3.235h-.898v3.931zm7.393 0l1.688-2.646h.061v2.646h.888v-3.931h-.888l-1.687 2.633h-.062v-2.633h-.887v3.931h.887zm5.243-1.36l.811 1.367h1.014l-1.293-1.989 1.279-1.94h-.989l-.782 1.362h-.062l-.786-1.362h-1.042l1.292 1.98-1.282 1.949h.971l.807-1.367h.062zm6.35 1.36c.879 0 1.415-.45 1.415-1.123 0-.478-.344-.836-.865-.895v-.062c.402-.067.688-.431.688-.843 0-.607-.467-1.008-1.264-1.008h-1.872v3.931h1.898zm-1.011-3.312h.779c.398 0 .59.202.59.503 0 .331-.217.511-.663.511h-.706v-1.014zm0 1.614h.771c.493 0 .746.18.746.535 0 .342-.228.543-.662.543h-.855v-1.078zm4.403 1.761c.517 0 .952-.223 1.173-.604h.061v.541h.866v-2.686c0-.831-.572-1.32-1.59-1.32-.941 0-1.597.439-1.669 1.126h.847c.084-.269.366-.417.779-.417.485 0 .746.218.746.611v.337l-1.021.062c-.964.053-1.503.467-1.503 1.172 0 .718.546 1.178 1.311 1.178zm.264-.687c-.398 0-.684-.197-.684-.535 0-.326.235-.51.738-.543l.895-.06v.319c0 .467-.406.819-.949.819zm3.986-1.074l1.318 1.698h1.09l-1.677-2.11 1.601-1.821h-1.036l-1.303 1.578h-.2v-1.578h-.898v3.931h.898v-1.698h.207zm4.069 1.761c.518 0 .953-.223 1.173-.604h.062v.541h.865v-2.686c0-.831-.572-1.32-1.589-1.32-.942 0-1.597.439-1.67 1.126h.848c.083-.269.365-.417.778-.417.486 0 .746.218.746.611v.337l-1.021.062c-.963.053-1.503.467-1.503 1.172 0 .718.547 1.178 1.311 1.178zm.264-.687c-.398 0-.684-.197-.684-.535 0-.326.235-.51.739-.543l.894-.06v.319c0 .467-.405.819-.949.819zm5.457.624h.898v-3.931h-.898v1.558h-1.677v-1.558h-.898v3.931h.898v-1.676h1.677v1.676zm5.387-2.619c-.094-.812-.71-1.387-1.727-1.387-1.192 0-1.891.759-1.891 2.031 0 1.288.703 2.054 1.894 2.054 1.003 0 1.626-.555 1.724-1.367h-.855c-.094.414-.405.632-.872.632-.612 0-.982-.484-.982-1.319 0-.819.366-1.301.982-1.301.492 0 .789.278.872.657h.855zm1.708 2.619l1.688-2.646h.061v2.646h.887v-3.931h-.887l-1.687 2.633h-.062v-2.633h-.887v3.931h.887zm4.138-5.742c0 .709.529 1.226 1.329 1.226.8 0 1.329-.517 1.329-1.226h-.71c-.003.385-.239.701-.619.701-.377 0-.615-.316-.619-.701h-.71zm.449 5.742l1.688-2.646h.061v2.646h.887v-3.931h-.887l-1.687 2.633h-.062v-2.633h-.887v3.931h.887z"/>
    <path fill-rule="evenodd" clip-rule="evenodd" d="M66.8826 280.293c0-2.265 1.8483-4.097 4.126-4.097H219.33c2.279 0 4.126 1.832 4.126 4.097v10.515c0 2.265-1.847 4.097-4.126 4.097H71.0086c-2.2777 0-4.126-1.832-4.126-4.097v-10.515zm4.126-3.791c-2.1107 0-3.8198 1.698-3.8198 3.791v10.515c0 2.093 1.7091 3.791 3.8198 3.791H219.33c2.112 0 3.82-1.698 3.82-3.791v-10.515c0-2.093-1.708-3.791-3.82-3.791H71.0086z"/>
  </g>
  <g fill="#333">
    <path d="M74.2481 154.948l2.3217 6.507 2.3093-6.507h2.4457v8.972h-1.8685v-2.452l.1863-4.234-2.4396 6.686h-1.2788l-2.4334-6.679.1862 4.227v2.452h-1.8623v-8.972h2.4334zm11.6767 9.096c-.985 0-1.7878-.3-2.4086-.9-.6167-.6-.9249-1.399-.9249-2.397v-.173c0-.669.1302-1.267.3911-1.793.2607-.53.6289-.937 1.1049-1.22.48-.288 1.0263-.431 1.6388-.431.9188 0 1.641.287 2.1665.862.5298.576.7946 1.391.7946 2.447v.727h-4.2771c.058.435.2318.784.5214 1.048.2938.262.6642.394 1.1111.394.6912 0 1.2313-.249 1.6203-.746l.8814.98c-.2689.378-.633.674-1.0925.887-.4594.21-.9684.315-1.527.315zm-.2049-5.472c-.3558 0-.6456.119-.8691.357-.2193.238-.3601.579-.422 1.023h2.4955v-.142c-.0083-.394-.1159-.698-.323-.912-.2068-.217-.5007-.326-.8814-.326zm9.8143 5.348H93.734v-2.563h-2.2285v2.563h-1.7941v-6.667h1.7941v2.674h2.2285v-2.674h1.8002v6.667zm4.4818.124c-.985 0-1.7876-.3-2.4084-.9-.6166-.6-.9249-1.399-.9249-2.397v-.173c0-.669.1303-1.267.3911-1.793.2607-.53.6289-.937 1.105-1.22.48-.288 1.0262-.431 1.6392-.431.918 0 1.64.287 2.166.862.53.576.795 1.391.795 2.447v.727h-4.2775c.058.435.2318.784.5215 1.048.294.262.664.394 1.111.394.691 0 1.231-.249 1.62-.746l.882.98c-.269.378-.633.674-1.093.887-.459.21-.968.315-1.527.315zm-.205-5.472c-.356 0-.645.119-.8687.357-.2194.238-.3602.579-.4221 1.023h2.4958v-.142c-.009-.394-.116-.698-.323-.912-.207-.217-.501-.326-.882-.326zm4.085 3.913c.405-.428.681-.851.826-1.27.144-.419.225-1.012.242-1.781l.049-2.181h4.942v5.232h.968v3.438h-1.794v-2.003h-3.979v2.003h-1.831v-3.438h.577zm2.117 0h2.154v-3.759h-1.397l-.012.801c-.037 1.224-.286 2.21-.745 2.958zm12.285-1.036h-.813v2.471h-1.794v-2.471h-.801l-1.335 2.471h-2.166l2.116-3.487-2.092-3.18h2.223l1.397 2.49h.658v-2.49h1.794v2.49h.67l1.403-2.49h2.222l-2.079 3.137 2.135 3.53h-2.204l-1.334-2.471zm7.368 2.595c-.985 0-1.788-.3-2.408-.9-.617-.6-.925-1.399-.925-2.397v-.173c0-.669.13-1.267.391-1.793.261-.53.629-.937 1.105-1.22.48-.288 1.026-.431 1.639-.431.918 0 1.64.287 2.166.862.53.576.795 1.391.795 2.447v.727h-4.277c.057.435.231.784.521 1.048.294.262.664.394 1.111.394.691 0 1.231-.249 1.62-.746l.882.98c-.269.378-.633.674-1.093.887-.459.21-.968.315-1.527.315zm-.205-5.472c-.356 0-.645.119-.869.357-.219.238-.36.579-.422 1.023h2.496v-.142c-.009-.394-.116-.698-.323-.912-.207-.217-.501-.326-.882-.326zm10.038 2.076c0 1.027-.236 1.851-.707 2.471-.468.616-1.101.925-1.9.925-.679 0-1.227-.234-1.645-.703v3.143h-1.794v-9.231h1.664l.062.653c.434-.518 1.001-.776 1.701-.776.827 0 1.471.304 1.93.912.46.608.689 1.446.689 2.514v.092zm-1.794-.129c0-.62-.112-1.099-.335-1.436-.219-.337-.54-.505-.962-.505-.563 0-.95.213-1.161.641v2.729c.219.44.61.66 1.173.66.857 0 1.285-.697 1.285-2.089zm11.919 3.401h-1.8v-5.225h-2.248v5.225h-1.793v-6.667h5.841v6.667zm1.093-3.395c0-.661.128-1.251.384-1.769.257-.517.625-.918 1.105-1.201.484-.284 1.045-.425 1.683-.425.906 0 1.645.275 2.216.825.575.551.896 1.299.962 2.243l.012.456c0 1.023-.287 1.845-.862 2.465-.576.616-1.348.925-2.316.925-.968 0-1.742-.309-2.322-.925-.575-.616-.862-1.454-.862-2.514v-.08zm1.793.129c0 .633.12 1.118.361 1.455.24.333.583.499 1.03.499.435 0 .774-.165 1.018-.493.244-.333.366-.863.366-1.59 0-.62-.122-1.101-.366-1.442-.244-.341-.588-.511-1.03-.511-.439 0-.778.17-1.018.511-.241.337-.361.861-.361 1.571zm14.682 3.266h-1.801v-5.225h-2.247v5.225h-1.794v-6.667h5.842v6.667zm7.418-3.272c0 1.027-.236 1.851-.708 2.471-.468.616-1.101.925-1.899.925-.679 0-1.228-.234-1.645-.703v3.143h-1.794v-9.231h1.663l.062.653c.435-.518 1.002-.776 1.701-.776.828 0 1.471.304 1.931.912.459.608.689 1.446.689 2.514v.092zm-1.794-.129c0-.62-.112-1.099-.336-1.436-.219-.337-.54-.505-.962-.505-.562 0-.949.213-1.16.641v2.729c.219.44.61.66 1.173.66.856 0 1.285-.697 1.285-2.089zm2.632.006c0-.661.128-1.251.385-1.769.256-.517.625-.918 1.105-1.201.484-.284 1.045-.425 1.682-.425.906 0 1.645.275 2.216.825.575.551.896 1.299.962 2.243l.013.456c0 1.023-.288 1.845-.863 2.465-.575.616-1.347.925-2.316.925-.968 0-1.742-.309-2.321-.925-.575-.616-.863-1.454-.863-2.514v-.08zm1.794.129c0 .633.12 1.118.36 1.455.24.333.583.499 1.03.499.435 0 .774-.165 1.018-.493.245-.333.367-.863.367-1.59 0-.62-.122-1.101-.367-1.442-.244-.341-.587-.511-1.03-.511-.439 0-.778.17-1.018.511-.24.337-.36.861-.36 1.571zm5.32 1.831c.405-.428.681-.851.825-1.27.145-.419.226-1.012.242-1.781l.05-2.181h4.941v5.232h.969v3.438h-1.794v-2.003h-3.979v2.003h-1.832v-3.438h.578zm2.117 0h2.154v-3.759h-1.397l-.012.801c-.038 1.224-.286 2.21-.745 2.958zm9.715 1.435c-.083-.16-.143-.359-.18-.597-.435.48-1 .721-1.695.721-.658 0-1.204-.189-1.639-.567-.43-.378-.646-.855-.646-1.43 0-.706.263-1.249.789-1.627.53-.378 1.293-.569 2.291-.573h.825v-.382c0-.308-.081-.554-.242-.739-.157-.185-.408-.278-.751-.278-.302 0-.54.072-.714.216-.17.144-.255.341-.255.592h-1.793c0-.387.12-.744.359-1.073.241-.328.58-.585 1.019-.77.438-.189.931-.283 1.477-.283.828 0 1.484.207 1.968.622.488.411.732.99.732 1.738v2.89c.004.632.094 1.111.267 1.436v.104h-1.812zm-1.484-1.238c.265 0 .509-.058.733-.173.223-.119.389-.277.496-.474v-1.146h-.67c-.898 0-1.376.308-1.434.924l-.006.105c0 .222.078.404.235.548.158.144.373.216.646.216zm10.87-1.233h-.814v2.471h-1.794v-2.471h-.8l-1.335 2.471h-2.166l2.116-3.487-2.092-3.18h2.223l1.396 2.49h.658v-2.49h1.794v2.49h.671l1.403-2.49h2.222l-2.079 3.137 2.135 3.53h-2.204l-1.334-2.471zm8.293 2.471c-.083-.16-.143-.359-.18-.597-.434.48-.999.721-1.695.721-.658 0-1.204-.189-1.638-.567-.431-.378-.646-.855-.646-1.43 0-.706.263-1.249.788-1.627.53-.378 1.294-.569 2.291-.573h.826v-.382c0-.308-.081-.554-.242-.739-.158-.185-.408-.278-.752-.278-.302 0-.54.072-.714.216-.169.144-.254.341-.254.592h-1.794c0-.387.12-.744.36-1.073.24-.328.579-.585 1.018-.77.439-.189.931-.283 1.478-.283.827 0 1.483.207 1.967.622.489.411.733.99.733 1.738v2.89c.004.632.093 1.111.267 1.436v.104h-1.813zm-1.484-1.238c.265 0 .509-.058.733-.173.223-.119.389-.277.497-.474v-1.146h-.671c-.898 0-1.376.308-1.434.924l-.006.105c0 .222.079.404.236.548.157.144.372.216.645.216zm8.499-.863l1.757-4.566h2.247v6.667h-1.794v-4.091l-1.608 4.091h-1.204l-1.577-4.023v4.023h-1.794v-6.667h2.228l1.745 4.566zM72.4689 239.596h-.699v-4.666h-2.6v4.666h-.6952v-5.234h3.9942v5.234zm.9849-1.981c0-.381.0749-.724.2245-1.028.152-.305.362-.539.6301-.705.2704-.165.5781-.248.9234-.248.5334 0 .9645.184 1.2928.55.3307.367.496.854.496 1.463v.047c0 .378-.0736.719-.2208 1.021-.145.299-.3538.533-.6266.701-.2703.167-.5818.251-.9342.251-.5312 0-.9621-.183-1.2928-.55-.3283-.366-.4924-.852-.4924-1.455v-.047zm.6735.079c0 .431.1002.778.3005 1.039.2029.261.4732.392.8112.392.3404 0 .6108-.132.8111-.396.2005-.266.3006-.637.3006-1.114 0-.427-.1026-.772-.3079-1.035-.2027-.266-.4731-.399-.811-.399-.3308 0-.5975.13-.8004.392-.2027.261-.3041.634-.3041 1.121zm4.9538.244h-.489v1.658h-.6736v-3.89h.6736v1.646h.4381l1.3183-1.646h.811l-1.5498 1.869 1.6803 2.021h-.8511l-1.3578-1.658zm5.2035 1.658c-.0387-.077-.07-.214-.0942-.41-.3114.321-.6831.481-1.1152.481-.3864 0-.7038-.108-.9524-.323-.2463-.218-.3694-.494-.3694-.827 0-.405.1546-.719.4635-.942.3114-.225.7483-.337 1.3108-.337h.6519v-.306c0-.233-.07-.417-.2101-.554-.1399-.139-.3463-.208-.6191-.208-.239 0-.4395.06-.6012.18-.1618.119-.2425.264-.2425.435h-.6736c0-.195.0688-.381.2064-.561.1401-.182.3283-.326.5649-.432.239-.105.5009-.158.7858-.158.4515 0 .805.113 1.061.338.2558.223.3887.531.3984.924v1.79c0 .357.0458.641.1375.852v.058h-.7025zm-1.1117-.507c.21 0 .4091-.054.5975-.162.1884-.108.3247-.248.4092-.421v-.798h-.5251c-.8208 0-1.2312.239-1.2312.716 0 .208.07.371.21.488.1401.118.32.177.5396.177zm4.8813-2.319c0-.182-.07-.326-.2099-.431-.1402-.108-.332-.162-.5759-.162-.2366 0-.4345.061-.5938.183-.157.123-.2354.266-.2354.432h-.6663c0-.338.1424-.615.4272-.831.2849-.215.6411-.323 1.0683-.323.4588 0 .8159.098 1.0719.295.2559.194.3839.472.3839.834 0 .174-.0531.335-.1593.481-.1064.146-.2572.263-.4527.349.4561.153.6843.455.6843.906 0 .357-.1388.64-.4164.848-.2776.208-.6481.313-1.1117.313-.4514 0-.8244-.109-1.1189-.327-.2922-.221-.4382-.518-.4382-.892h.6663c0 .189.0844.352.2534.489.1714.134.3839.201.6374.201.2559 0 .4624-.058.6193-.176.1569-.117.2354-.269.2354-.456 0-.218-.0664-.374-.1993-.468-.1304-.095-.3343-.143-.612-.143h-.6699v-.561h.7279c.4563-.012.6844-.199.6844-.561zm1.434.845c0-.381.0749-.724.2245-1.028.1521-.305.362-.539.6302-.705.2703-.165.578-.248.9233-.248.5334 0 .9643.184 1.2928.55.3307.367.4961.854.4961 1.463v.047c0 .378-.0737.719-.2209 1.021-.145.299-.3537.533-.6265.701-.2704.167-.5819.251-.9343.251-.5312 0-.962-.183-1.2928-.55-.3283-.366-.4924-.852-.4924-1.455v-.047zm.6736.079c0 .431.1001.778.3004 1.039.2029.261.4733.392.8112.392.3405 0 .6108-.132.8111-.396.2005-.266.3006-.637.3006-1.114 0-.427-.1025-.772-.3078-1.035-.2028-.266-.4731-.399-.8111-.399-.3307 0-.5975.13-.8004.392-.2027.261-.304.634-.304 1.121zm3.7948 1.902v-3.89h1.5282c.5214 0 .9209.091 1.1986.273.28.18.4201.445.4201.795 0 .18-.0543.342-.1629.489-.1087.143-.2694.254-.4818.33.2367.055.4262.163.5686.324.1448.16.2172.352.2172.575 0 .357-.1328.63-.3983.82-.2631.189-.636.284-1.119.284h-1.7707zm.6699-1.708v1.172h1.1081c.28 0 .489-.052.6265-.155.1401-.103.21-.248.21-.435 0-.388-.2873-.582-.8618-.582h-1.0828zm0-.532h.8656c.6275 0 .9415-.182.9415-.546 0-.365-.297-.553-.8908-.565h-.9163v1.111zM69.103 254.243l1.2637-2.007h.8183l-1.6657 2.596 1.7057 2.638h-.8258l-1.2962-2.042-1.3037 2.042h-.822l1.7091-2.638-1.6693-2.596h.8149l1.271 2.007zm2.5674 1.247c0-.381.0747-.723.2243-1.028.1523-.304.3622-.54.6302-.704.2703-.165.5782-.249.9233-.249.5336 0 .9645.183 1.2928.551.3307.365.4961.853.4961 1.463v.046c0 .38-.0735.719-.2209 1.022-.1448.298-.3535.532-.6265.7-.2704.168-.5817.251-.9342.251-.531 0-.9619-.182-1.2926-.55-.3284-.365-.4925-.851-.4925-1.456v-.046zm.6734.079c0 .431.1003.778.3006 1.039.2027.261.4731.391.8111.391.3404 0 .6107-.132.8112-.395.2003-.266.3005-.637.3005-1.114 0-.426-.1026-.771-.3077-1.035-.2029-.266-.4733-.399-.8113-.399-.3307 0-.5974.131-.8002.392-.2027.261-.3042.635-.3042 1.121zm7.0431 0c0 .592-.1363 1.07-.4091 1.43-.2728.363-.6422.543-1.108.543-.4757 0-.8499-.149-1.1226-.448v1.871h-.67v-5.384h.612l.0325.432c.273-.336.652-.504 1.1372-.504.4706 0 .8425.176 1.1153.528.2752.352.4127.844.4127 1.47v.062zm-.6699-.076c0-.437-.0941-.784-.2823-1.038-.1884-.254-.4466-.381-.7749-.381-.4057 0-.7099.178-.9126.535v1.858c.2003.355.5069.532.9197.532.3212 0 .5758-.125.7641-.377.1907-.255.286-.631.286-1.129zm1.3471-.003c0-.381.0749-.723.2245-1.028.152-.304.3622-.54.6301-.704.2704-.165.5781-.249.9234-.249.5336 0 .9645.183 1.2928.551.3307.365.4961.853.4961 1.463v.046c0 .38-.0737.719-.2209 1.022-.145.298-.3538.532-.6265.7-.2704.168-.5817.251-.9343.251-.531 0-.962-.182-1.2928-.55-.3283-.365-.4924-.851-.4924-1.456v-.046zm.6735.079c0 .431.1002.778.3007 1.039.2027.261.473.391.811.391.3404 0 .6108-.132.8111-.395.2005-.266.3006-.637.3006-1.114 0-.426-.1025-.771-.3077-1.035-.2029-.266-.4732-.399-.8112-.399-.3308 0-.5975.131-.8002.392-.2029.261-.3043.635-.3043 1.121zm4.465-1.988v3.346h1.4339v-3.346h.67v3.346h1.4303v-3.346h.6735v3.889H84.529v-3.889h.6736zm6.8909 3.961c-.531 0-.9631-.172-1.2963-.517-.3331-.347-.4997-.812-.4997-1.391v-.122c0-.386.0735-.729.2209-1.032.1496-.305.3572-.542.6229-.712.2679-.172.5575-.259.869-.259.5094 0 .9053.166 1.1876.499.2825.333.4238.811.4238 1.432v.277h-2.6543c.0095.383.1218.693.3368.93.2173.236.4925.352.8256.352.2365 0 .4369-.048.6011-.142.1641-.096.3077-.223.4309-.381l.4092.316c-.3283.501-.8207.75-1.4775.75zm-.0832-3.486c-.2704 0-.4973.098-.6808.294-.1836.194-.297.469-.3404.821h1.9627v-.052c-.0194-.336-.1111-.599-.2752-.783-.1642-.187-.3863-.28-.6663-.28zm4.0157 3.486c-.531 0-.9631-.172-1.2962-.517-.3332-.347-.4997-.812-.4997-1.391v-.122c0-.386.0736-.729.2208-1.032.1497-.305.3572-.542.6229-.712.268-.172.5577-.259.869-.259.5094 0 .9054.166 1.1878.499.2823.333.4236.811.4236 1.432v.277H94.9c.0097.383.1219.693.3368.93.2172.236.4924.352.8256.352.2366 0 .4369-.048.601-.142.1642-.096.3078-.223.4309-.381l.4093.316c-.3283.501-.8208.75-1.4776.75zm-.0832-3.486c-.2703 0-.4973.098-.6808.294-.1833.194-.2968.469-.3404.821h1.9627v-.052c-.0193-.336-.111-.599-.2752-.783-.1641-.187-.3862-.28-.6663-.28zm7.5392 1.513c0 .592-.136 1.07-.409 1.43-.273.363-.642.543-1.108.543-.476 0-.85-.149-1.123-.448v1.871h-.67v-5.384h.612l.033.432c.273-.336.652-.504 1.137-.504.471 0 .842.176 1.115.528.276.352.413.844.413 1.47v.062zm-.67-.076c0-.437-.094-.784-.282-1.038-.189-.254-.447-.381-.775-.381-.406 0-.71.178-.913.535v1.858c.201.355.507.532.92.532.321 0 .576-.125.764-.377.191-.255.286-.631.286-1.129zm3.15 2.049c-.531 0-.963-.172-1.296-.517-.333-.347-.5-.812-.5-1.391v-.122c0-.386.074-.729.221-1.032.15-.305.358-.542.623-.712.268-.172.558-.259.869-.259.51 0 .906.166 1.188.499.282.333.424.811.424 1.432v.277h-2.655c.01.383.122.693.337.93.217.236.493.352.826.352.236 0 .437-.048.601-.142.164-.096.308-.223.431-.381l.409.316c-.328.501-.821.75-1.478.75zm-.083-3.486c-.27 0-.497.098-.681.294-.183.194-.296.469-.34.821h1.963v-.052c-.02-.336-.111-.599-.275-.783-.165-.187-.387-.28-.667-.28zm4.545.589c0-.182-.07-.326-.21-.431-.14-.108-.332-.161-.576-.161-.237 0-.435.06-.594.182-.157.124-.235.266-.235.433h-.667c0-.339.143-.615.428-.831.285-.217.641-.323 1.068-.323.459 0 .816.098 1.072.293.256.194.384.473.384.835 0 .175-.053.335-.16.481-.106.147-.257.262-.452.35.456.153.684.455.684.905 0 .357-.139.64-.416.848-.278.209-.648.312-1.112.312-.451 0-.824-.108-1.119-.326-.292-.221-.438-.518-.438-.891h.666c0 .189.085.352.254.488.171.134.384.202.637.202.256 0 .462-.06.619-.176.157-.117.236-.27.236-.457 0-.218-.067-.375-.2-.467-.13-.096-.334-.144-.612-.144h-.67v-.56h.728c.457-.012.685-.199.685-.562zm2.343.586h.941c.051-.517.236-.933.554-1.247.321-.316.726-.475 1.213-.475.512 0 .931.171 1.257.515.326.341.502.788.529 1.337l.003.208c0 .38-.075.719-.224 1.025-.15.304-.36.539-.63.704-.271.163-.58.244-.927.244-.505 0-.918-.163-1.239-.488-.321-.329-.501-.753-.539-1.277h-.938v1.693h-.67v-3.889h.67v1.65zm1.6.338c0 .431.1.778.301 1.039.203.261.474.391.815.391.34 0 .609-.132.807-.398.2-.266.301-.637.301-1.111 0-.424-.102-.769-.305-1.035-.202-.266-.473-.399-.811-.399-.333 0-.601.131-.804.392-.202.261-.304.635-.304 1.121zm5.979 1.022l1.332-3.01h.837v3.889h-.67v-2.828l-1.268 2.828h-.463l-1.293-2.89v2.89h-.67v-3.889h.869l1.326 3.01zm4.874.951c-.531 0-.963-.172-1.297-.517-.333-.347-.499-.812-.499-1.391v-.122c0-.386.073-.729.221-1.032.149-.305.357-.542.622-.712.268-.172.558-.259.87-.259.509 0 .905.166 1.187.499.283.333.424.811.424 1.432v.277h-2.654c.009.383.121.693.336.93.218.236.493.352.826.352.236 0 .437-.048.601-.142.164-.096.308-.223.431-.381l.409.316c-.328.501-.821.75-1.477.75zm-.083-3.486c-.271 0-.498.098-.681.294-.184.194-.297.469-.341.821h1.963v-.052c-.019-.336-.111-.599-.275-.783-.164-.187-.386-.28-.666-.28zm3.139 1.937h-.605l-.047-3.757h.703l-.051 3.757zm-.677 1.144c0-.108.032-.198.098-.27.067-.074.166-.111.297-.111.13 0 .229.037.297.111.067.072.101.162.101.27 0 .108-.034.197-.101.269-.068.069-.167.105-.297.105-.131 0-.23-.036-.297-.105-.066-.072-.098-.161-.098-.269zm8.528 1.617h-.692v-1.284h-3.784v1.288h-.695l-.004-1.851h.431c.227-.255.407-.594.539-1.022.136-.429.22-.898.254-1.408l.116-2.241h3.154v4.671h.688l-.007 1.847zm-3.951-1.847h2.571v-4.102h-1.785l-.076 1.538c-.032.601-.113 1.114-.243 1.539-.128.424-.283.765-.467 1.025zm7.948-3.326v3.889h-.673v-3.338h-1.333l-.079 1.456c-.044.668-.157 1.145-.341 1.434-.181.286-.469.438-.865.448h-.268v-.586l.192-.013c.217-.024.373-.15.467-.375.094-.225.154-.642.181-1.25l.072-1.665h2.647zm4.071 0v3.889h-.674v-1.513h-1.01l-.924 1.513h-.724l.985-1.613c-.251-.092-.444-.231-.579-.42-.133-.192-.199-.416-.199-.67 0-.354.133-.639.401-.855.268-.218.627-.328 1.076-.331h1.648zm-2.452 1.193c0 .191.065.343.196.46.13.115.302.175.517.177h1.065v-1.291h-.963c-.249 0-.447.062-.594.184-.147.12-.221.276-.221.47zm8.568 2.696h-.67v-1.661h-1.8v1.661h-.673v-3.889h.673v1.686h1.8v-1.686h.67v3.889zm2.705.072c-.531 0-.964-.172-1.297-.517-.333-.347-.499-.812-.499-1.391v-.122c0-.386.073-.729.221-1.032.149-.305.357-.542.622-.712.268-.172.558-.259.869-.259.51 0 .906.166 1.188.499.283.333.424.811.424 1.432v.277h-2.654c.009.383.121.693.336.93.218.236.493.352.826.352.236 0 .437-.048.601-.142.164-.096.308-.223.431-.381l.409.316c-.328.501-.821.75-1.477.75zm-.084-3.486c-.27 0-.497.098-.68.294-.184.194-.297.469-.341.821h1.963v-.052c-.019-.336-.111-.599-.275-.783-.164-.187-.387-.28-.667-.28zm4.921.076h-1.806v3.338h-.674v-3.889h2.48v.551zm.334 1.358c0-.381.075-.723.224-1.028.152-.304.362-.54.63-.704.271-.165.578-.249.924-.249.533 0 .964.183 1.292.551.331.365.497.853.497 1.463v.046c0 .38-.074.719-.221 1.022-.145.298-.354.532-.627.7-.27.168-.582.251-.934.251-.531 0-.962-.182-1.293-.55-.328-.365-.492-.851-.492-1.456v-.046zm.673.079c0 .431.1.778.301 1.039.203.261.473.391.811.391.34 0 .611-.132.811-.395.2-.266.301-.637.301-1.114 0-.426-.103-.771-.308-1.035-.203-.266-.473-.399-.811-.399-.331 0-.598.131-.801.392-.202.261-.304.635-.304 1.121zm7.829 1.022l1.333-3.01h.836v3.889h-.67v-2.828l-1.267 2.828h-.464l-1.292-2.89v2.89h-.67v-3.889h.869l1.325 3.01zm3.98-1.669h1.017c.445.005.796.12 1.054.345.258.225.388.53.388.917 0 .388-.133.7-.399.934-.265.235-.623.352-1.072.352h-1.658v-3.889h.67v1.341zm3.856 2.548h-.673v-3.889h.673v3.889zm-3.856-2.006v1.463h.996c.251 0 .445-.063.583-.19.137-.129.206-.306.206-.527 0-.217-.068-.394-.203-.529-.133-.139-.32-.212-.561-.217h-1.021zm10.07 2.006h-.67v-3.338h-1.803v3.338h-.674v-3.889h3.147v3.889zm.898-1.98c0-.381.075-.723.225-1.028.152-.304.362-.54.63-.704.27-.165.578-.249.923-.249.534 0 .965.183 1.293.551.331.365.496.853.496 1.463v.046c0 .38-.074.719-.221 1.022-.145.298-.354.532-.626.7-.271.168-.582.251-.935.251-.531 0-.962-.182-1.292-.55-.329-.365-.493-.851-.493-1.456v-.046zm.674.079c0 .431.1.778.3 1.039.203.261.473.391.811.391.341 0 .611-.132.812-.395.2-.266.3-.637.3-1.114 0-.426-.103-.771-.308-1.035-.203-.266-.473-.399-.811-.399-.331 0-.597.131-.8.392-.203.261-.304.635-.304 1.121zm3.44 1.358l.232-.283c.26-.335.409-.838.445-1.509l.062-1.554h2.523v3.346h.504v1.686h-.67v-1.143h-2.734v1.143h-.67l.004-1.686h.304zm.793 0h1.799v-2.732h-1.205l-.04.928c-.041.774-.226 1.377-.554 1.804zm3.538-1.437c0-.381.075-.723.224-1.028.152-.304.362-.54.63-.704.271-.165.578-.249.924-.249.533 0 .964.183 1.292.551.331.365.497.853.497 1.463v.046c0 .38-.074.719-.221 1.022-.145.298-.354.532-.627.7-.27.168-.582.251-.934.251-.531 0-.962-.182-1.293-.55-.328-.365-.492-.851-.492-1.456v-.046zm.673.079c0 .431.1.778.301 1.039.203.261.473.391.811.391.34 0 .611-.132.811-.395.2-.266.301-.637.301-1.114 0-.426-.103-.771-.308-1.035-.203-.266-.473-.399-.811-.399-.331 0-.598.131-.801.392-.202.261-.304.635-.304 1.121zm5.454-1.765c.492 0 .886.165 1.18.493.297.326.445.755.445 1.291v.06c0 .367-.071.695-.213.986-.142.286-.348.511-.616.671-.265.158-.572.237-.919.237-.527 0-.95-.174-1.271-.52-.321-.351-.482-.819-.482-1.407v-.322c0-.818.152-1.467.456-1.949.307-.481.758-.775 1.354-.881.338-.06.567-.132.685-.218.118-.088.177-.206.177-.357h.551c0 .3-.069.534-.207.702-.135.167-.352.285-.651.355l-.5.112c-.399.093-.698.251-.898.474-.198.22-.327.515-.388.884.355-.407.787-.611 1.297-.611zm-.131.546c-.328 0-.589.112-.782.331-.193.218-.29.522-.29.91v.057c0 .417.097.749.29.992.196.243.459.363.79.363.333 0 .596-.122.789-.366.193-.245.29-.601.29-1.071 0-.368-.098-.661-.294-.881-.193-.223-.457-.335-.793-.335zm5.754 1.219c0 .592-.136 1.07-.409 1.43-.273.363-.642.543-1.108.543-.476 0-.85-.149-1.123-.448v1.871h-.669v-5.384h.612l.032.432c.273-.336.652-.504 1.137-.504.471 0 .843.176 1.116.528.275.352.412.844.412 1.47v.062zm-.67-.076c0-.437-.094-.784-.282-1.038-.188-.254-.447-.381-.775-.381-.406 0-.71.178-.913.535v1.858c.201.355.507.532.92.532.321 0 .576-.125.764-.377.191-.255.286-.631.286-1.129zm3.944 1.977c-.039-.076-.07-.213-.094-.409-.312.321-.684.481-1.116.481-.386 0-.703-.107-.952-.323-.246-.218-.369-.494-.369-.827 0-.404.154-.718.463-.941.312-.225.748-.339 1.311-.339h.652v-.305c0-.232-.07-.418-.21-.553-.14-.139-.347-.21-.619-.21-.24 0-.44.06-.602.181-.161.12-.242.264-.242.434h-.674c0-.194.069-.381.207-.56.14-.182.328-.326.565-.431.239-.106.501-.159.785-.159.452 0 .805.113 1.061.338.256.223.389.53.399.924v1.79c0 .358.046.641.137.852v.057h-.702zm-1.112-.507c.21 0 .409-.053.598-.161.188-.108.324-.247.409-.421v-.798h-.525c-.821 0-1.231.238-1.231.716 0 .208.07.371.21.489.139.117.319.175.539.175zm5.939-3.382v3.889h-.674v-3.338h-1.332l-.08 1.456c-.043.668-.157 1.145-.34 1.434-.182.286-.47.438-.866.448h-.268v-.586l.192-.013c.217-.024.373-.15.467-.375.094-.225.155-.642.181-1.25l.073-1.665h2.647zm3.61 0h.67v3.889h-.67v-2.835l-1.807 2.835h-.67v-3.889h.67v2.84l1.807-2.84zM70.4826 267.772h-.6699v-3.338h-1.8034v3.338h-.6734v-3.889h3.1467v3.889zm.8981-1.98c0-.381.0747-.723.2245-1.028.152-.304.362-.539.63-.704.2703-.165.5782-.249.9235-.249.5334 0 .9643.184 1.2926.551.3307.366.4961.853.4961 1.463v.046c0 .38-.0735.72-.2209 1.022-.1448.299-.3536.532-.6264.7-.2703.169-.5818.251-.9342.251-.5312 0-.9621-.182-1.2928-.549-.3283-.366-.4924-.852-.4924-1.456v-.047zm.6735.079c0 .431.1002.778.3005 1.039.2029.261.4732.392.8112.392.3403 0 .6108-.133.8111-.395.2003-.266.3006-.637.3006-1.115 0-.426-.1027-.771-.3079-1.035-.2027-.266-.4731-.398-.811-.398-.3308 0-.5977.13-.8004.391s-.3041.635-.3041 1.121zm3.4401 1.358l.2316-.283c.2609-.335.4093-.838.4454-1.509l.0616-1.554h2.524v3.346h.5034v1.687h-.6699v-1.144h-2.7341v1.144h-.6699l.0037-1.687h.3042zm.7929 0h1.7998v-2.731h-1.2058l-.0399.927c-.041.774-.2258 1.377-.5541 1.804zm5.0299-1.926l.869-1.42h.7822l-1.2819 1.923 1.3217 1.966h-.7749l-.9054-1.454-.9051 1.454h-.7786l1.3217-1.966-1.2819-1.923h.7749l.8583 1.42zm2.1146.489c0-.381.0749-.723.2245-1.028.1522-.304.3622-.539.6302-.704.2703-.165.5782-.249.9233-.249.5336 0 .9645.184 1.2928.551.3307.366.4961.853.4961 1.463v.046c0 .38-.0735.72-.2209 1.022-.1448.299-.3536.532-.6265.7-.2704.169-.5817.251-.9342.251-.5311 0-.962-.182-1.2927-.549-.3283-.366-.4926-.852-.4926-1.456v-.047zm.6736.079c0 .431.1003.778.3006 1.039.2027.261.4731.392.8111.392.3404 0 .6107-.133.8112-.395.2003-.266.3004-.637.3004-1.115 0-.426-.1025-.771-.3077-1.035-.2029-.266-.4732-.398-.8112-.398-.3307 0-.5975.13-.8002.391s-.3042.635-.3042 1.121zm3.44 1.358l.2318-.283c.2607-.335.4093-.838.4454-1.509l.0616-1.554h2.524v3.346h.5032v1.687h-.6697v-1.144h-2.7341v1.144h-.6699l.0037-1.687h.304zm.7931 0h1.7998v-2.731h-1.206l-.0397.927c-.041.774-.2258 1.377-.5541 1.804zm6.71-3.346v3.889h-.6736v-1.513h-1.0103l-.9233 1.513h-.7243l.9849-1.612c-.2509-.093-.4442-.232-.5792-.421-.1329-.192-.1993-.415-.1993-.67 0-.353.134-.638.402-.855.2679-.218.6265-.328 1.0755-.331h1.6476zm-2.4516 1.193c0 .191.0653.344.1957.46.1302.116.3029.176.5177.177h1.0646v-1.291h-.9631c-.2487 0-.4466.062-.594.184-.1472.12-.2209.276-.2209.47zm4.2187-1.193v3.346h1.4339v-3.346h.6699v3.346h1.4307v-3.346h.673v3.346h.551l-.065 1.699h-.602v-1.156h-4.7651v-3.889h.6736zm7.9775 0h.67v3.889h-.67v-2.835l-1.807 2.835h-.67v-3.889h.67v2.84l1.807-2.84zm3.371 3.961c-.531 0-.963-.172-1.296-.517-.333-.347-.5-.812-.5-1.39v-.122c0-.387.074-.73.221-1.032.15-.306.357-.543.623-.713.268-.172.558-.259.869-.259.509 0 .905.166 1.188.5.282.333.423.81.423 1.432v.276h-2.654c.01.383.122.694.337.931.217.235.492.352.825.352.237 0 .437-.049.601-.143.165-.096.308-.223.431-.381l.41.316c-.329.501-.821.75-1.478.75zm-.083-3.485c-.27 0-.497.097-.681.293-.183.194-.297.469-.34.821h1.962v-.052c-.019-.336-.111-.599-.275-.783-.164-.187-.386-.279-.666-.279zm4.291 3.413v-3.889h1.528c.522 0 .921.091 1.199.273.28.18.42.445.42.795 0 .18-.055.343-.163.489-.109.145-.269.254-.482.33.237.057.426.163.569.325.145.159.217.351.217.575 0 .357-.133.63-.398.819-.263.189-.637.283-1.119.283h-1.771zm.67-1.707v1.173h1.108c.28 0 .489-.051.626-.154.14-.104.21-.249.21-.437 0-.388-.287-.582-.861-.582h-1.083zm0-.532h.865c.628 0 .942-.182.942-.546 0-.364-.297-.553-.891-.565h-.916v1.111zm5.924 2.239c-.039-.075-.07-.213-.094-.409-.312.321-.683.481-1.115.481-.387 0-.704-.106-.953-.323-.246-.218-.369-.494-.369-.827 0-.404.154-.718.463-.941.312-.225.749-.338 1.311-.338h.652v-.306c0-.232-.07-.417-.21-.553-.14-.139-.346-.209-.619-.209-.239 0-.44.06-.601.18-.162.12-.243.264-.243.434h-.673c0-.194.068-.381.206-.559.14-.183.328-.327.565-.431.239-.107.501-.16.786-.16.451 0 .805.113 1.061.338.255.223.388.531.398.924v1.791c0 .357.046.64.137.851v.057h-.702zm-1.112-.506c.21 0 .41-.054.598-.162.188-.108.324-.247.409-.421v-.798h-.525c-.821 0-1.231.239-1.231.716 0 .208.07.371.21.489.14.117.32.176.539.176zm3.947-1.151h-.488v1.657h-.674v-3.889h.674v1.647h.438l1.318-1.647h.811l-1.55 1.87 1.68 2.019h-.851l-1.358-1.657zm5.204 1.657c-.039-.075-.07-.213-.094-.409-.312.321-.683.481-1.115.481-.387 0-.704-.106-.953-.323-.246-.218-.369-.494-.369-.827 0-.404.154-.718.463-.941.312-.225.749-.338 1.311-.338h.652v-.306c0-.232-.07-.417-.21-.553-.14-.139-.346-.209-.619-.209-.239 0-.44.06-.601.18-.162.12-.243.264-.243.434h-.674c0-.194.069-.381.207-.559.14-.183.328-.327.565-.431.239-.107.501-.16.786-.16.451 0 .805.113 1.061.338.255.223.388.531.398.924v1.791c0 .357.046.64.137.851v.057h-.702zm-1.112-.506c.21 0 .41-.054.598-.162.188-.108.324-.247.409-.421v-.798h-.525c-.821 0-1.231.239-1.231.716 0 .208.07.371.21.489.14.117.32.176.539.176zm5.928.506h-.67v-1.66h-1.799v1.66h-.674v-3.889h.674v1.686h1.799v-1.686h.67v3.889zm2.651-.47c.239 0 .448-.073.626-.215.179-.144.278-.325.297-.539h.634c-.012.221-.089.434-.232.635-.142.201-.333.362-.572.483-.237.118-.488.178-.753.178-.534 0-.959-.175-1.275-.527-.314-.355-.471-.84-.471-1.453v-.111c0-.38.07-.716.21-1.01.14-.295.341-.524.601-.687.264-.163.574-.245.931-.245.44 0 .804.132 1.094.393.292.261.448.599.467 1.017h-.634c-.019-.251-.116-.457-.29-.619-.171-.163-.383-.243-.637-.243-.34 0-.605.121-.793.365-.186.242-.279.594-.279 1.055v.125c0 .448.093.793.279 1.035.186.242.452.363.797.363zm4.845-3.419h.67v3.889h-.67v-2.835l-1.807 2.835h-.67v-3.889h.67v2.84l1.807-2.84zm4.28 0h.67v3.889h-.67v-2.835l-1.807 2.835h-.67v-3.889h.67v2.84l1.807-2.84zM71.9809 207.815c-.0607.638-.298 1.136-.7118 1.495-.4139.356-.9643.534-1.6514.534-.4799 0-.9034-.112-1.2704-.337-.3641-.227-.6456-.549-.8441-.965-.1988-.417-.3022-.9-.3105-1.45v-.559c0-.564.1006-1.061.3022-1.491.2013-.43.4896-.762.8648-.995.378-.232.8139-.349 1.3079-.349.6649 0 1.2001.18 1.6057.538.4054.359.6414.866.7076 1.52h-1.0428c-.0497-.43-.1767-.739-.3808-.928-.2015-.192-.4979-.288-.8897-.288-.4553 0-.8057.166-1.0512.497-.2428.329-.367.812-.3726 1.451v.53c0 .646.1159 1.139.3477 1.478.2346.34.5767.51 1.0262.51.4112 0 .7203-.092.9272-.275.2069-.184.338-.489.3932-.916h1.0428zm4.366-1.705h-1.4526v3.652h-1.0055v-3.652h-1.4362v-.793h3.8943v.793zm3.2818 3.652c-.0441-.085-.0827-.223-.1159-.415-.32.331-.7117.497-1.1753.497-.4497 0-.8166-.127-1.1008-.382s-.4262-.57-.4262-.945c0-.474.1766-.837.5296-1.089.356-.254.8637-.382 1.5231-.382h.6166v-.291c0-.23-.0649-.414-.1946-.551-.1295-.14-.3269-.209-.5917-.209-.2291 0-.4167.057-.5629.172-.1461.112-.2193.256-.2193.432h-1.0057c0-.244.0815-.472.2443-.682.1627-.214.3834-.381.6621-.502.2814-.12.5945-.18.9394-.18.5241 0 .9422.131 1.2539.394.3119.26.4719.627.4802 1.101v2.005c0 .4.0565.719.1697.957v.07h-1.0265zm-1.1049-.719c.1986 0 .3848-.048.5587-.144.1766-.096.3089-.225.3973-.386v-.838h-.5423c-.3724 0-.6524.064-.8399.193-.1877.129-.2815.311-.2815.546 0 .192.0635.345.1903.46.1297.113.3022.169.5174.169zm6.4725-2.933h-1.4527v3.652h-1.0055v-3.652h-1.4362v-.793h3.8944v.793zm3.4681-.793h1.0015v4.445h-1.0015v-2.966l-1.7548 2.966H85.708v-4.445h1.0016v2.966l1.7548-2.966zm3.9107 3.73c.2512 0 .4594-.073.625-.218.1655-.145.2537-.324.2648-.538h.9477c-.0111.277-.0979.535-.2607.777-.1627.238-.3835.427-.6621.566-.2787.14-.5795.21-.9022.21-.6264 0-1.123-.201-1.4899-.604-.3668-.403-.5504-.959-.5504-1.668v-.103c0-.676.1822-1.217.5463-1.622.3641-.408.8607-.612 1.4898-.612.5326 0 .9657.154 1.2996.464.3366.307.513.711.5296 1.212h-.9477c-.0111-.255-.0993-.465-.2648-.629-.1628-.164-.3711-.246-.625-.246-.3255 0-.5765.118-.7531.353-.1766.233-.2662.588-.269 1.064v.16c0 .482.0868.842.2607 1.081.1766.235.4303.353.7614.353zm6.1208-2.937h-1.4526v3.652h-1.0057v-3.652h-1.436v-.793h3.8943v.793zm3.4681-.793h1.001v4.445h-1.001v-2.966l-1.755 2.966h-1.001v-4.445h1.001v2.966l1.755-2.966zm3.662 2.686h-.508v1.759h-1.006v-4.445h1.006v1.775h.442l1.238-1.775h1.241l-1.618 2.128 1.755 2.317h-1.308l-1.242-1.759zm5.778 1.759c-.044-.085-.083-.223-.116-.415-.32.331-.712.497-1.175.497-.45 0-.817-.127-1.101-.382-.284-.255-.427-.57-.427-.945 0-.474.177-.837.53-1.089.356-.254.864-.382 1.523-.382h.617v-.291c0-.23-.065-.414-.195-.551-.129-.14-.327-.209-.592-.209-.229 0-.416.057-.562.172-.147.112-.22.256-.22.432h-1.005c0-.244.081-.472.244-.682.163-.214.383-.381.662-.502.281-.12.594-.18.939-.18.525 0 .943.131 1.254.394.312.26.472.627.48 1.101v2.005c0 .4.057.719.17.957v.07h-1.026zm-1.105-.719c.198 0 .385-.048.558-.144.177-.096.31-.225.398-.386v-.838h-.542c-.373 0-.653.064-.84.193-.188.129-.282.311-.282.546 0 .192.064.345.191.46.129.113.302.169.517.169zm8.517-2.51c0 .197-.061.379-.182.546-.119.165-.287.296-.505.395.513.178.769.521.769 1.031 0 .408-.166.734-.5.977-.334.241-.781.362-1.341.362-.342 0-.654-.056-.935-.168-.282-.116-.501-.277-.658-.485-.158-.211-.236-.46-.236-.748h1.001c0 .181.082.333.244.456.163.121.369.181.617.181.245 0 .44-.056.583-.169.147-.115.22-.264.22-.447 0-.217-.064-.373-.191-.469-.126-.096-.322-.143-.587-.143h-.72v-.719h.745c.449-.006.674-.189.674-.551 0-.181-.065-.322-.194-.423-.13-.101-.308-.152-.534-.152-.221 0-.407.055-.559.164-.152.107-.227.243-.227.407h-1.002c0-.392.166-.712.497-.961.331-.252.752-.378 1.262-.378.554 0 .986.112 1.295.337.309.224.464.543.464.957zm3.613 3.229c-.045-.085-.083-.223-.116-.415-.32.331-.712.497-1.176.497-.449 0-.816-.127-1.1-.382-.285-.255-.427-.57-.427-.945 0-.474.177-.837.53-1.089.356-.254.864-.382 1.523-.382h.617v-.291c0-.23-.065-.414-.195-.551-.13-.14-.327-.209-.592-.209-.229 0-.416.057-.562.172-.147.112-.22.256-.22.432h-1.005c0-.244.081-.472.244-.682.162-.214.383-.381.662-.502.281-.12.594-.18.939-.18.524 0 .942.131 1.254.394.312.26.472.627.48 1.101v2.005c0 .4.057.719.17.957v.07h-1.026zm-1.105-.719c.198 0 .385-.048.558-.144.177-.096.309-.225.398-.386v-.838h-.543c-.372 0-.652.064-.84.193-.187.129-.281.311-.281.546 0 .192.063.345.19.46.13.113.302.169.518.169zm8.918.719h-1.006v-1.795h-1.742v1.795h-1.006v-4.445h1.006v1.852h1.742v-1.852h1.006v4.445zm3.046.082c-.638 0-1.155-.199-1.552-.596-.395-.4-.592-.931-.592-1.594v-.123c0-.444.086-.839.257-1.187.174-.351.416-.623.728-.818.312-.194.659-.291 1.043-.291.61 0 1.08.193 1.411.579.334.386.501.932.501 1.639v.403h-2.926c.03.367.153.657.368.871.218.213.492.32.82.32.46 0 .836-.185 1.125-.555l.543.514c-.18.266-.42.472-.72.62-.299.145-.634.218-1.006.218zm-.12-3.808c-.276 0-.5.096-.671.287-.168.192-.276.459-.322.801h1.916v-.074c-.022-.334-.112-.586-.269-.756-.158-.172-.376-.258-.654-.258zm2.719 2.929c.278-.31.465-.603.558-.879.097-.28.155-.636.174-1.068l.058-1.701h3.108v3.648h.621v2.12h-1.001v-1.323h-2.873v1.323h-1.018l.005-2.12h.368zm1.179 0h1.718v-2.79h-1.13l-.029.851c-.039.816-.225 1.462-.559 1.939zm6.03.879c-.637 0-1.155-.199-1.552-.596-.395-.4-.592-.931-.592-1.594v-.123c0-.444.086-.839.257-1.187.174-.351.417-.623.728-.818.312-.194.66-.291 1.043-.291.61 0 1.08.193 1.411.579.334.386.501.932.501 1.639v.403h-2.926c.031.367.153.657.369.871.217.213.491.32.819.32.461 0 .836-.185 1.126-.555l.542.514c-.18.266-.42.472-.72.62-.298.145-.634.218-1.006.218zm-.12-3.808c-.276 0-.499.096-.671.287-.168.192-.275.459-.322.801h1.916v-.074c-.022-.334-.112-.586-.269-.756-.157-.172-.375-.258-.654-.258zm6.506-.719v4.445h-1.006v-3.64h-1.266l-.083 1.549c-.053.745-.197 1.28-.435 1.606-.234.323-.594.485-1.08.485h-.31l-.004-.83.207-.021c.22-.03.38-.162.48-.398.102-.238.167-.671.194-1.298l.083-1.898h3.22zm2.16 1.787h.844c.075-.567.295-1.02.662-1.36.367-.34.831-.509 1.391-.509.604 0 1.094.193 1.469.579.378.386.582.898.612 1.536l.005.235c0 .438-.086.829-.257 1.174-.168.345-.411.612-.728.801-.315.189-.679.284-1.093.284-.579 0-1.055-.178-1.428-.534-.369-.356-.583-.825-.641-1.405h-.836v1.857h-1.006v-4.445h1.006v1.787zm1.825.481c0 .457.095.816.285 1.076.191.257.456.386.795.386s.603-.131.79-.394c.188-.263.282-.648.282-1.155 0-.457-.098-.815-.294-1.072-.193-.26-.455-.39-.786-.39-.329 0-.589.13-.782.39-.194.257-.29.644-.29 1.159zM71.2013 227.996h-1.0015v-4.802l-1.4776.501v-.842l2.3507-.859h.1284v6.002zm3.2569-3.446h.6125c.3089-.003.5532-.083.7325-.239.1822-.156.2732-.382.2732-.678 0-.284-.076-.505-.2277-.661-.1489-.159-.3779-.238-.687-.238-.2704 0-.4925.078-.6663.234-.1737.153-.2607.355-.2607.604h-1.0056c0-.307.0814-.586.2442-.838.1655-.252.3945-.448.6869-.588.2952-.142.6249-.213.9892-.213.6014 0 1.0731.15 1.4153.452.3449.298.5173.714.5173 1.248 0 .269-.087.522-.2608.76-.1709.236-.393.414-.6663.535.3312.112.5822.288.7533.529.1738.242.2607.529.2607.863 0 .537-.1862.964-.5587 1.282-.3697.318-.8566.477-1.4608.477-.5795 0-1.0539-.154-1.4237-.461-.3697-.306-.5546-.714-.5546-1.224h1.0057c0 .263.0884.477.2648.641.1794.164.4195.247.7201.247.3119 0 .5573-.083.7367-.247.1793-.164.2689-.403.2689-.715 0-.315-.0937-.557-.2814-.727-.1875-.17-.4661-.255-.836-.255h-.5917v-.788zm7.5816.928c0 .86-.1628 1.509-.4883 1.947-.3228.436-.8152.654-1.4774.654-.6511 0-1.1423-.213-1.4734-.637-.3283-.427-.4966-1.059-.5047-1.894v-1.035c0-.86.1614-1.505.4841-1.935.3256-.43.8208-.645 1.4857-.645.6594 0 1.1505.209 1.4732.628.3257.419.4927 1.047.5008 1.882v1.035zm-1.0055-1.117c0-.562-.0773-.973-.2318-1.233-.1545-.263-.4001-.394-.7367-.394-.3283 0-.5698.124-.7242.374-.1545.246-.236.632-.2443 1.158v1.356c0 .559.0787.975.236 1.249.1572.273.4042.411.7408.411.3228 0 .5615-.127.7159-.378.1545-.255.236-.652.2443-1.192v-1.351zM115.45 225.03l.327-3.015h3.236v.863h-2.4l-.166 1.429c.279-.159.593-.238.944-.238.574 0 1.019.182 1.337.546.32.365.48.855.48 1.471 0 .608-.177 1.093-.53 1.454-.353.359-.837.539-1.453.539-.552 0-1.01-.155-1.374-.465-.361-.312-.557-.723-.587-1.232h.972c.039.29.144.513.315.669.171.154.394.231.67.231.309 0 .549-.11.72-.329.174-.219.261-.518.261-.896 0-.364-.095-.652-.286-.862-.19-.214-.452-.321-.786-.321-.182 0-.336.025-.463.074-.127.047-.265.14-.414.279l-.803-.197zm7.399.464c-.336.354-.729.53-1.179.53-.53 0-.952-.183-1.266-.55-.315-.37-.472-.855-.472-1.454 0-.395.08-.752.24-1.072.16-.321.388-.57.683-.748.295-.178.637-.267 1.026-.267.607 0 1.088.224 1.444.674.356.449.534 1.05.534 1.803v.279c0 1.079-.245 1.902-.736 2.469s-1.224.855-2.198.863h-.12v-.826h.145c.593-.008 1.048-.149 1.366-.423.317-.277.495-.702.533-1.278zm-.968-.25c.201 0 .39-.058.567-.173.177-.115.313-.274.41-.476v-.39c0-.441-.091-.796-.273-1.064-.182-.269-.418-.403-.708-.403s-.521.119-.695.357c-.171.236-.257.534-.257.896 0 .375.087.678.261.908.174.23.405.345.695.345zM178.85 221.986v.825h-.124c-.563.009-1.013.162-1.349.461-.337.298-.537.721-.6 1.269.323-.337.735-.505 1.237-.505.533 0 .952.186 1.258.558.309.373.464.853.464 1.442 0 .608-.181 1.101-.542 1.479-.359.375-.831.563-1.416.563-.601 0-1.09-.22-1.465-.661-.372-.441-.558-1.019-.558-1.734v-.341c0-1.049.256-1.871.769-2.465.516-.594 1.257-.891 2.223-.891h.103zm-1.08 2.855c-.221 0-.423.061-.608.185-.183.123-.316.287-.402.493v.304c0 .443.094.797.282 1.06.187.26.43.39.728.39s.534-.111.708-.333c.173-.222.26-.514.26-.875s-.088-.656-.265-.883c-.176-.228-.411-.341-.703-.341z"/>
  </g>
  <path d="M144.5 143c15.188 0 27.5-12.312 27.5-27.5S159.688 88 144.5 88 117 100.312 117 115.5s12.312 27.5 27.5 27.5z" fill="#EAF5FF"/>
  <path d="M147.808 127.226c7.446.169 13.98 1.951 16.611 7.24 0 0-6.598 7.893-18.419 8.484-11 .55-17.652-5.212-17.652-5.212.138-3.87 1.078-7.904 7.687-9.786 2.744-.363 7.584-.871 9.173-.799.867.073 1.734.073 2.6.073z" fill="#DE1414"/>
  <path fill-rule="evenodd" clip-rule="evenodd" d="M150.25 127.3s-.882-1.412-1.068-4.909c-.307-3.267 1.555-7.901 1.555-7.901s2.712-1.26 3.603-3.381c.892-2.122 2.022-5.817.815-8.446-1.206-2.63-2.174-4.7571-6.099-6.0679-3.954-1.3141-7.507-1.485-9.097.2893-1.59 1.7743-2.587 5.3366-3.072 9.8476-.334 3.193-1.372 9.449 1.681 11.164 1.5.824 2.873.952 2.873.952s.009 3.293-.597 6.277c-.768 3.885-1.188 6.469-.875 7.719 0 0 1.284 1.094 4.434-.805 3.15-1.899 5.847-4.739 5.847-4.739z" fill="#FFB8B8"/>
  <path d="M140.17 105.914c.008-.46-.327-.849-.735-.932-.627-.129-1.455-.261-2.303-.184-.73 4.317-1.434 13.277 1.589 14.577.015-.919.374-1.986.389-2.905l-.054-.844c.218-.839.302-1.757.379-2.292.072-.229-.061-.461-.264-.541l-.811-.473c-.203-.081-.335-.389-.195-.617.497-1.141 1.843-4.183 1.922-4.871.075-.455.078-.609.083-.911v-.007z" fill="#FFA0A0"/>
  <path d="M140.3 127.9c1.667.333 5.6 1 10-.6-5.5 6-13.5 10.1-10 .6z" fill="#fff"/>
  <path fill-rule="evenodd" clip-rule="evenodd" d="M137.144 104.775c-.326.338-8.416-4.384-4.081-10.4562 2.811-3.9375 7.751.1754 7.751.1754 5.461-2.8868 14.284-.231 12.808 3.5948 0 0 2.325-.2253 3.709 2.206.857 1.518 1.133 3.254.977 4.994-.143 1.36-.569 2.731-1.225 3.966-.732 1.399-2.188 2.763-3.63 4.377-1.191 1.329-2.213 3.034-3.516 3.309-.091.026 1.49-5.758 1.49-5.758s1.053-.101 1.682-.556c1.058-.773 1.198-2.112.469-3.089-.496-.638-1.688-.811-2.442-.268-.999.694-1.02 1.766-1.389 3.283-1.068 4.469-1.194 11.324-6.571 12.502-4.318.943-7.475-1.98-6.698-7.359.11-.763 1.755-1.887 3.835-1.535 4.144.68 3.133 4.331 5.124 2.873 2.196-1.619 1.243-4.59 2.473-9.654.274-1.155 1.585-4.476 1.585-4.476s-3.984.025-8.265-2.543c-1.537-.9158-2.724-.6847-3.053.1-.694 1.755-1.033 4.314-1.033 4.314z" fill="#212122"/>
  <path fill-rule="evenodd" clip-rule="evenodd" d="M138.046 115.984c-.369.334.358 2.122 1.063 2.453 1.352.628 2.417-1.591 2.236-1.993-.175-.407-2.923-.793-3.299-.46z" fill="#FFB8B8"/>
  <path d="M160.956 130.674l-3.035 7.188-.459 1.916S161 138 164.593 134.29c-2.172-2.978-3.637-3.616-3.637-3.616z" fill="#D6001D"/>
  <path fill-rule="evenodd" clip-rule="evenodd" d="M138.551 116.419c.059-.089.179-.114.269-.055.413.271.826.28 1.481.178.106-.016.205.056.221.162.017.105-.055.204-.161.221-.678.106-1.216.115-1.755-.238-.089-.058-.114-.178-.055-.268z" fill="#DE1414"/>
  <g fill="#333">
    <path d="M138.384 107.819c.236.056.424-.169.471-.394l.047-.506c.048-.282-.141-.507-.329-.563-.236-.056-.424.169-.471.394l-.047.506c-.047.282.141.563.329.563z"/>
    <path fill-rule="evenodd" clip-rule="evenodd" d="M144.887 106.408c-.817-.773-2.008-.956-2.917-.715-.071.019-.113.091-.094.162.019.071.092.113.163.094.833-.221 1.924-.049 2.665.651.053.051.137.049.188-.004.05-.054.048-.138-.005-.188z"/>
    <path d="M142.871 107.296c-.26-.058-.469.174-.521.406l-.052.523c-.052.29.157.522.365.58.26.058.468-.174.52-.406l.052-.523c.052-.29-.156-.522-.364-.58z"/>
    <path fill-rule="evenodd" clip-rule="evenodd" d="M138.704 104.67c-.416-.07-.862-.063-1.237.069-.07.024-.106.1-.082.169.025.069.101.106.17.081.32-.112.717-.123 1.105-.058s.751.203 1.001.374c.061.041.144.025.185-.035.042-.061.026-.143-.035-.185-.289-.196-.69-.345-1.107-.415z"/>
  </g>
  <defs>
    <linearGradient id="paint0_linear" x1="29.0632" y1="38.9105" x2="29.0632" y2="515.482" gradientUnits="userSpaceOnUse">
      <stop stop-color="#5F5F5F"/>
      <stop offset=".01012" stop-color="#222"/>
      <stop offset="1" stop-color="#252525"/>
    </linearGradient>
    <linearGradient id="paint1_linear" x1="31.4875" y1="41.1514" x2="31.4875" y2="512.869" gradientUnits="userSpaceOnUse">
      <stop stop-color="#6D6D6D"/>
      <stop offset=".01612"/>
      <stop offset=".9847"/>
      <stop offset="1" stop-color="#5C5C5C"/>
    </linearGradient>
    <linearGradient id="paint3_linear" x1="24.5857" y1="111.69" x2="25.1495" y2="111.69" gradientUnits="userSpaceOnUse">
      <stop stop-color="#A5A5A5"/>
      <stop offset=".00735" stop-color="#FBFBFB"/>
      <stop offset=".98213" stop-color="#F6F6F6"/>
      <stop offset="1" stop-color="#BFBFBF"/>
    </linearGradient>
    <linearGradient id="paint4_linear" x1="24.5857" y1="155.735" x2="25.1495" y2="155.735" gradientUnits="userSpaceOnUse">
      <stop stop-color="#A5A5A5"/>
      <stop offset=".00735" stop-color="#FBFBFB"/>
      <stop offset=".98213" stop-color="#F6F6F6"/>
      <stop offset="1" stop-color="#BFBFBF"/>
    </linearGradient>
    <linearGradient id="paint5_linear" x1="24.5857" y1="199.993" x2="25.1495" y2="199.993" gradientUnits="userSpaceOnUse">
      <stop stop-color="#A5A5A5"/>
      <stop offset=".00735" stop-color="#FBFBFB"/>
      <stop offset=".98213" stop-color="#F6F6F6"/>
      <stop offset="1" stop-color="#BFBFBF"/>
    </linearGradient>
    <radialGradient id="paint2_radial" cx="0" cy="0" r="1" gradientUnits="userSpaceOnUse" gradientTransform="matrix(0 136.593 -47.8976 0 139.448 508.118)">
      <stop stop-color="#fff" stop-opacity=".15127"/>
      <stop offset="1" stop-color="#fff" stop-opacity=".01"/>
    </radialGradient>
    <radialGradient id="paint6_radial" cx="0" cy="0" r="1" gradientUnits="userSpaceOnUse" gradientTransform="rotate(45.234 15.03625 240.8589) scale(7.13827)">
      <stop stop-color="#434343"/>
      <stop offset="1" stop-color="#121212"/>
    </radialGradient>
    <radialGradient id="paint7_radial" cx="0" cy="0" r="1" gradientUnits="userSpaceOnUse" gradientTransform="matrix(0 3.73489 -3.72972 0 170.419 52.7296)">
      <stop stop-color="#1A2131"/>
      <stop offset="1" stop-color="#213054"/>
    </radialGradient>
    <filter id="filter0_d" x=".52002" y=".3623" width="288.514" height="316.669" filterUnits="userSpaceOnUse" color-interpolation-filters="sRGB">
      <feFlood flood-opacity="0" result="BackgroundImageFix"/>
      <feColorMatrix in="SourceAlpha" values="0 0 0 0 0 0 0 0 0 0 0 0 0 0 0 0 0 0 127 0"/>
      <feOffset dy="-10"/>
      <feGaussianBlur stdDeviation="12.5"/>
      <feColorMatrix values="0 0 0 0 0.2 0 0 0 0 0.2 0 0 0 0 0.2 0 0 0 0.15 0"/>
      <feBlend in2="BackgroundImageFix" result="effect1_dropShadow"/>
      <feBlend in="SourceGraphic" in2="effect1_dropShadow" result="shape"/>
    </filter>
    <filter id="filter1_d" x="46" y="181" width="198" height="133" filterUnits="userSpaceOnUse" color-interpolation-filters="sRGB">
      <feFlood flood-opacity="0" result="BackgroundImageFix"/>
      <feColorMatrix in="SourceAlpha" values="0 0 0 0 0 0 0 0 0 0 0 0 0 0 0 0 0 0 127 0"/>
      <feOffset/>
      <feGaussianBlur stdDeviation="6"/>
      <feColorMatrix values="0 0 0 0 0 0 0 0 0 0 0 0 0 0 0 0 0 0 0.07 0"/>
      <feBlend in2="BackgroundImageFix" result="effect1_dropShadow"/>
      <feBlend in="SourceGraphic" in2="effect1_dropShadow" result="shape"/>
    </filter>
  </defs>
</svg>
